<svg xmlns="http://www.w3.org/2000/svg" width="18" height="18" viewBox="0 0 18 18" fill="none"><path d="M3.58332 4.83334C3.2518 4.83334 2.93386 4.70164 2.69944 4.46722C2.46502 4.2328 2.33332 3.91486 2.33332 3.58334C2.33332 3.25182 2.46502 2.93388 2.69944 2.69945C2.93386 2.46503 3.2518 2.33334 3.58332 2.33334C3.91484 2.33334 4.23279 2.46503 4.46721 2.69945C4.70163 2.93388 4.83332 3.25182 4.83332 3.58334C4.83332 3.91486 4.70163 4.2328 4.46721 4.46722C4.23279 4.70164 3.91484 4.83334 3.58332 4.83334ZM16.8417 8.65L9.34166 1.15001C9.04166 0.850005 8.62499 0.666672 8.16666 0.666672H2.33332C1.40832 0.666672 0.666656 1.40834 0.666656 2.33334V8.16667C0.666656 8.625 0.84999 9.04167 1.15832 9.34167L8.64999 16.8417C8.95832 17.1417 9.37499 17.3333 9.83332 17.3333C10.2917 17.3333 10.7083 17.1417 11.0083 16.8417L16.8417 11.0083C17.15 10.7083 17.3333 10.2917 17.3333 9.83334C17.3333 9.36667 17.1417 8.95 16.8417 8.65Z" fill="#0B3954"></path></svg>