<svg xmlns="http://www.w3.org/2000/svg" width="18" height="18" viewBox="0 0 18 18" fill="none"><path d="M9 0.666664C4.41667 0.666664 0.666672 4.41666 0.666672 9C0.666672 13.5833 4.41667 17.3333 9 17.3333C13.5833 17.3333 17.3333 13.5833 17.3333 9C17.3333 4.41666 13.5833 0.666664 9 0.666664ZM6.35834 4.875C7.175 4.875 7.83334 5.53333 7.83334 6.35833C7.83334 7.175 7.175 7.83333 6.35834 7.83333C5.53334 7.83333 4.87501 7.175 4.87501 6.35833C4.87501 5.53333 5.53334 4.875 6.35834 4.875ZM11.6833 13.1667C10.8667 13.1667 10.2083 12.5 10.2083 11.6833C10.2083 10.8667 10.8667 10.2083 11.6833 10.2083C12.5 10.2083 13.1667 10.8667 13.1667 11.6833C13.1667 12.5 12.5 13.1667 11.6833 13.1667ZM6.08334 13.1917L4.83334 11.9417L11.9417 4.83333L13.1917 6.08333L6.08334 13.1917Z" fill="#0B3954"></path></svg>