<svg xmlns="http://www.w3.org/2000/svg" width="18" height="16" viewBox="0 0 18 16" fill="none"><path d="M16.5 8.18333C16.5 3.60833 12.95 0.5 9 0.5C5.09167 0.5 1.50001 3.54167 1.50001 8.23333C1.00001 8.51667 0.666672 9.05 0.666672 9.66667V11.3333C0.666672 12.25 1.41667 13 2.33334 13H3.16667V7.91667C3.16667 4.69167 5.775 2.08333 9 2.08333C12.225 2.08333 14.8333 4.69167 14.8333 7.91667V13.8333H8.16667V15.5H14.8333C15.75 15.5 16.5 14.75 16.5 13.8333V12.8167C16.9917 12.5583 17.3333 12.05 17.3333 11.45V9.53333C17.3333 8.95 16.9917 8.44167 16.5 8.18333Z" fill="#0B3954"></path></svg>