<svg xmlns="http://www.w3.org/2000/svg" width="18" height="18" viewBox="0 0 18 18" fill="none"><path fill-rule="evenodd" clip-rule="evenodd" d="M9 0.875C4.5125 0.875 0.875 4.5125 0.875 9C0.875 13.4875 4.5125 17.125 9 17.125C13.4875 17.125 17.125 13.4875 17.125 9C17.125 4.5125 13.4875 0.875 9 0.875ZM6.5 5.25C6.33424 5.25 6.17527 5.31585 6.05806 5.43306C5.94085 5.55027 5.875 5.70924 5.875 5.875C5.875 6.04076 5.94085 6.19973 6.05806 6.31694C6.17527 6.43415 6.33424 6.5 6.5 6.5H7.75C8.56667 6.5 9.26083 7.02167 9.51833 7.75H6.5C6.33424 7.75 6.17527 7.81585 6.05806 7.93306C5.94085 8.05027 5.875 8.20924 5.875 8.375C5.875 8.54076 5.94085 8.69973 6.05806 8.81694C6.17527 8.93415 6.33424 9 6.5 9H9.51833C9.38895 9.36559 9.14944 9.68209 8.83276 9.90594C8.51608 10.1298 8.13781 10.25 7.75 10.25H6.5C6.37647 10.2501 6.25574 10.2868 6.15306 10.3555C6.05038 10.4242 5.97035 10.5218 5.92309 10.6359C5.87583 10.75 5.86346 10.8756 5.88753 10.9968C5.9116 11.1179 5.97104 11.2293 6.05833 11.3167L8.55833 13.8167C8.61555 13.8781 8.68455 13.9273 8.76122 13.9615C8.83788 13.9956 8.92065 14.014 9.00456 14.0155C9.08848 14.017 9.17184 14.0015 9.24966 13.9701C9.32749 13.9387 9.39818 13.8919 9.45753 13.8325C9.51688 13.7732 9.56367 13.7025 9.5951 13.6247C9.62654 13.5468 9.64197 13.4635 9.64049 13.3796C9.63901 13.2956 9.62064 13.2129 9.58648 13.1362C9.55232 13.0596 9.50307 12.9906 9.44167 12.9333L8 11.49C8.67527 11.4357 9.31463 11.1635 9.82185 10.7144C10.3291 10.2654 10.6767 9.66371 10.8125 9H11.5C11.6658 9 11.8247 8.93415 11.9419 8.81694C12.0592 8.69973 12.125 8.54076 12.125 8.375C12.125 8.20924 12.0592 8.05027 11.9419 7.93306C11.8247 7.81585 11.6658 7.75 11.5 7.75H10.8125C10.7203 7.29669 10.5281 6.86966 10.25 6.5H11.5C11.6658 6.5 11.8247 6.43415 11.9419 6.31694C12.0592 6.19973 12.125 6.04076 12.125 5.875C12.125 5.70924 12.0592 5.55027 11.9419 5.43306C11.8247 5.31585 11.6658 5.25 11.5 5.25H6.5Z" fill="#0B3954"></path></svg>