<svg xmlns="http://www.w3.org/2000/svg" width="12" height="18" viewBox="0 0 12 18" fill="none"><path d="M1.83334 0.666672H10.1667C10.6087 0.666672 11.0326 0.842266 11.3452 1.15483C11.6577 1.46739 11.8333 1.89131 11.8333 2.33334V15.6667C11.8333 16.1087 11.6577 16.5326 11.3452 16.8452C11.0326 17.1577 10.6087 17.3333 10.1667 17.3333H1.83334C1.39131 17.3333 0.967388 17.1577 0.654827 16.8452C0.342266 16.5326 0.166672 16.1087 0.166672 15.6667V2.33334C0.166672 1.89131 0.342266 1.46739 0.654827 1.15483C0.967388 0.842266 1.39131 0.666672 1.83334 0.666672ZM1.83334 2.33334V5.66667H10.1667V2.33334H1.83334ZM1.83334 7.33334V9H3.50001V7.33334H1.83334ZM5.16667 7.33334V9H6.83334V7.33334H5.16667ZM8.50001 7.33334V9H10.1667V7.33334H8.50001ZM1.83334 10.6667V12.3333H3.50001V10.6667H1.83334ZM5.16667 10.6667V12.3333H6.83334V10.6667H5.16667ZM8.50001 10.6667V12.3333H10.1667V10.6667H8.50001ZM1.83334 14V15.6667H3.50001V14H1.83334ZM5.16667 14V15.6667H6.83334V14H5.16667ZM8.50001 14V15.6667H10.1667V14H8.50001Z" fill="black"></path></svg>