<svg xmlns="http://www.w3.org/2000/svg" width="18" height="18" viewBox="0 0 18 18" fill="none"><path d="M4.00001 10.6667H10.6667V9.00001H4.00001V10.6667ZM4.00001 8.16667H14V6.50001H4.00001V8.16667ZM4.00001 5.66667H14V4.00001H4.00001V5.66667ZM0.666672 17.3333V2.33334C0.666672 1.87501 0.830005 1.48251 1.15667 1.15584C1.48334 0.829173 1.87556 0.666118 2.33334 0.666673H15.6667C16.125 0.666673 16.5175 0.830007 16.8442 1.15667C17.1708 1.48334 17.3339 1.87556 17.3333 2.33334V12.3333C17.3333 12.7917 17.17 13.1842 16.8433 13.5108C16.5167 13.8375 16.1244 14.0006 15.6667 14H4.00001L0.666672 17.3333Z" fill="black"></path></svg>