<svg xmlns="http://www.w3.org/2000/svg" width="18" height="11" viewBox="0 0 18 11" fill="none"><path d="M17.2667 0.516667C17.1821 0.313042 17.0203 0.151229 16.8167 0.0666666C16.7165 0.0239658 16.6089 0.00131666 16.5 0H12.3333C12.1123 0 11.9004 0.0877975 11.7441 0.244078C11.5878 0.400358 11.5 0.61232 11.5 0.833333C11.5 1.05435 11.5878 1.26631 11.7441 1.42259C11.9004 1.57887 12.1123 1.66667 12.3333 1.66667H14.4917L9.83333 6.325L7.09167 3.575C7.0142 3.49689 6.92203 3.4349 6.82048 3.39259C6.71893 3.35028 6.61001 3.3285 6.5 3.3285C6.38999 3.3285 6.28107 3.35028 6.17952 3.39259C6.07797 3.4349 5.9858 3.49689 5.90833 3.575L0.908333 8.575C0.830226 8.65247 0.768231 8.74464 0.725924 8.84619C0.683617 8.94774 0.661835 9.05666 0.661835 9.16667C0.661835 9.27668 0.683617 9.3856 0.725924 9.48715C0.768231 9.5887 0.830226 9.68086 0.908333 9.75833C0.985802 9.83644 1.07797 9.89844 1.17952 9.94074C1.28107 9.98305 1.38999 10.0048 1.5 10.0048C1.61001 10.0048 1.71893 9.98305 1.82048 9.94074C1.92203 9.89844 2.0142 9.83644 2.09167 9.75833L6.5 5.34167L9.24167 8.09167C9.31914 8.16977 9.4113 8.23177 9.51285 8.27408C9.6144 8.31638 9.72332 8.33817 9.83333 8.33817C9.94334 8.33817 10.0523 8.31638 10.1538 8.27408C10.2554 8.23177 10.3475 8.16977 10.425 8.09167L15.6667 2.84167V5C15.6667 5.22101 15.7545 5.43298 15.9107 5.58926C16.067 5.74554 16.279 5.83333 16.5 5.83333C16.721 5.83333 16.933 5.74554 17.0893 5.58926C17.2455 5.43298 17.3333 5.22101 17.3333 5V0.833333C17.332 0.724436 17.3094 0.616852 17.2667 0.516667Z" fill="black"></path></svg>