<svg xmlns="http://www.w3.org/2000/svg" width="18" height="18" viewBox="0 0 18 18" fill="none"><path d="M8.99166 0.666672C4.39166 0.666672 0.666656 4.40001 0.666656 9C0.666656 13.6 4.39166 17.3333 8.99166 17.3333C13.6 17.3333 17.3333 13.6 17.3333 9C17.3333 4.40001 13.6 0.666672 8.99166 0.666672ZM8.99999 15.6667C5.31666 15.6667 2.33332 12.6833 2.33332 9C2.33332 5.31667 5.31666 2.33334 8.99999 2.33334C12.6833 2.33334 15.6667 5.31667 15.6667 9C15.6667 12.6833 12.6833 15.6667 8.99999 15.6667ZM8.81666 4.83334H8.76666C8.43332 4.83334 8.16666 5.1 8.16666 5.43334V9.36667C8.16666 9.65834 8.31666 9.93334 8.57499 10.0833L12.0333 12.1583C12.3167 12.325 12.6833 12.2417 12.85 11.9583C12.8918 11.8909 12.9197 11.8157 12.9318 11.7372C12.944 11.6587 12.9403 11.5786 12.9208 11.5016C12.9014 11.4247 12.8666 11.3524 12.8187 11.2891C12.7707 11.2258 12.7105 11.1729 12.6417 11.1333L9.41666 9.21667V5.43334C9.41666 5.1 9.14999 4.83334 8.81666 4.83334Z" fill="black"></path></svg>