<svg xmlns="http://www.w3.org/2000/svg" width="18" height="14" viewBox="0 0 18 14" fill="none"><path d="M2.33332 13.6667C1.87499 13.6667 1.48249 13.5033 1.15582 13.1767C0.829158 12.85 0.666102 12.4578 0.666658 12V2.00001C0.666658 1.54168 0.829991 1.14918 1.15666 0.822511C1.48332 0.495845 1.87555 0.332789 2.33332 0.333345H15.6667C16.125 0.333345 16.5175 0.496678 16.8442 0.823345C17.1708 1.15001 17.3339 1.54223 17.3333 2.00001V12C17.3333 12.4583 17.17 12.8508 16.8433 13.1775C16.5167 13.5042 16.1244 13.6672 15.6667 13.6667H2.33332ZM2.33332 7.00001H15.6667V3.66668H2.33332V7.00001Z" fill="black"></path></svg>