<svg xmlns="http://www.w3.org/2000/svg" width="18" height="17" viewBox="0 0 18 17" fill="none"><path d="M15.5 6.33333V5.5L10.5 0.5H2.16667C1.24167 0.5 0.5 1.24167 0.5 2.16667V13.8333C0.5 14.2754 0.675595 14.6993 0.988155 15.0118C1.30072 15.3244 1.72464 15.5 2.16667 15.5H7.16667V13.9417L14.1583 6.95C14.525 6.58333 14.9917 6.38333 15.5 6.33333ZM9.66667 1.75L14.25 6.33333H9.66667V1.75ZM17.0417 9.825L16.225 10.6417L14.525 8.94167L15.3417 8.125C15.5 7.95833 15.775 7.95833 15.9417 8.125L17.0417 9.225C17.2083 9.39167 17.2083 9.66667 17.0417 9.825ZM13.9417 9.525L15.6417 11.225L10.5333 16.3333H8.83333V14.6333L13.9417 9.525Z" fill="black"></path></svg>