<svg xmlns="http://www.w3.org/2000/svg" width="18" height="18" viewBox="0 0 18 18" fill="none"><path d="M3.16666 17.3333C2.70833 17.3333 2.31583 17.17 1.98916 16.8433C1.66249 16.5167 1.49944 16.1244 1.49999 15.6667V6.25C1.26388 6.09722 1.06583 5.90278 0.905826 5.66667C0.745826 5.43056 0.666104 5.15278 0.666659 4.83333V2.33333C0.666659 1.875 0.829993 1.4825 1.15666 1.15583C1.48333 0.829167 1.87555 0.666112 2.33333 0.666667H15.6667C16.125 0.666667 16.5175 0.830001 16.8442 1.15667C17.1708 1.48333 17.3339 1.87556 17.3333 2.33333V4.83333C17.3333 5.15278 17.2533 5.43056 17.0933 5.66667C16.9333 5.90278 16.7355 6.09722 16.5 6.25V15.6667C16.5 16.125 16.3367 16.5175 16.01 16.8442C15.6833 17.1708 15.2911 17.3339 14.8333 17.3333H3.16666ZM15.6667 4.83333V2.33333H2.33333V4.83333H15.6667ZM7.33333 10.6667H10.6667C10.9028 10.6667 11.1008 10.5867 11.2608 10.4267C11.4208 10.2667 11.5005 10.0689 11.5 9.83333C11.5 9.59722 11.42 9.39917 11.26 9.23917C11.1 9.07917 10.9022 8.99944 10.6667 9H7.33333C7.09722 9 6.89916 9.08 6.73916 9.24C6.57916 9.4 6.49944 9.59778 6.49999 9.83333C6.49999 10.0694 6.57999 10.2675 6.73999 10.4275C6.89999 10.5875 7.09777 10.6672 7.33333 10.6667Z" fill="#0B3954"></path></svg>