<svg xmlns="http://www.w3.org/2000/svg" width="17" height="15" viewBox="0 0 17 15" fill="none"><path d="M15.5833 7.41667L16.75 8.59167L11.3083 14.0833L8.41667 11.1667L9.58333 9.99167L11.3083 11.725L15.5833 7.41667ZM6.33333 11.1667L8.83333 13.6667H0.5V12C0.5 10.1583 3.48333 8.66667 7.16667 8.66667L8.74167 8.75834L6.33333 11.1667ZM7.16667 0.333336C8.05072 0.333336 8.89857 0.684525 9.52369 1.30965C10.1488 1.93477 10.5 2.78261 10.5 3.66667C10.5 4.55072 10.1488 5.39857 9.52369 6.02369C8.89857 6.64881 8.05072 7 7.16667 7C6.28261 7 5.43476 6.64881 4.80964 6.02369C4.18452 5.39857 3.83333 4.55072 3.83333 3.66667C3.83333 2.78261 4.18452 1.93477 4.80964 1.30965C5.43476 0.684525 6.28261 0.333336 7.16667 0.333336Z" fill="#0B3954"></path></svg>