<svg xmlns="http://www.w3.org/2000/svg" width="20" height="14" viewBox="0 0 20 14" fill="none"><path d="M2.50001 0.333336C2.05798 0.333336 1.63406 0.508931 1.3215 0.821491C1.00894 1.13405 0.833344 1.55798 0.833344 2V11.1667H2.50001C2.50001 11.8297 2.7634 12.4656 3.23224 12.9344C3.70108 13.4033 4.33697 13.6667 5.00001 13.6667C5.66305 13.6667 6.29894 13.4033 6.76778 12.9344C7.23662 12.4656 7.50001 11.8297 7.50001 11.1667H12.5C12.5 11.8297 12.7634 12.4656 13.2322 12.9344C13.7011 13.4033 14.337 13.6667 15 13.6667C15.6631 13.6667 16.2989 13.4033 16.7678 12.9344C17.2366 12.4656 17.5 11.8297 17.5 11.1667H19.1667V7L16.6667 3.66667H14.1667V0.333336M8.33334 2L11.6667 5.33334L8.33334 8.66667V6.16667H3.33334V4.5H8.33334M14.1667 4.91667H16.25L17.8917 7H14.1667M5.00001 9.91667C5.33153 9.91667 5.64947 10.0484 5.88389 10.2828C6.11831 10.5172 6.25001 10.8351 6.25001 11.1667C6.25001 11.4982 6.11831 11.8161 5.88389 12.0506C5.64947 12.285 5.33153 12.4167 5.00001 12.4167C4.66849 12.4167 4.35055 12.285 4.11613 12.0506C3.88171 11.8161 3.75001 11.4982 3.75001 11.1667C3.75001 10.8351 3.88171 10.5172 4.11613 10.2828C4.35055 10.0484 4.66849 9.91667 5.00001 9.91667ZM15 9.91667C15.3315 9.91667 15.6495 10.0484 15.8839 10.2828C16.1183 10.5172 16.25 10.8351 16.25 11.1667C16.25 11.4982 16.1183 11.8161 15.8839 12.0506C15.6495 12.285 15.3315 12.4167 15 12.4167C14.6685 12.4167 14.3505 12.285 14.1161 12.0506C13.8817 11.8161 13.75 11.4982 13.75 11.1667C13.75 10.8351 13.8817 10.5172 14.1161 10.2828C14.3505 10.0484 14.6685 9.91667 15 9.91667Z" fill="#0B3954"></path></svg>