<svg xmlns="http://www.w3.org/2000/svg" width="19" height="19" viewBox="0 0 19 19" fill="none"><path fill-rule="evenodd" clip-rule="evenodd" d="M3.00001 3.652C2.99984 3.71425 2.98223 3.7752 2.94919 3.82796C2.91615 3.88072 2.869 3.92317 2.81307 3.95051C2.75715 3.97785 2.69468 3.98898 2.63275 3.98265C2.57083 3.97631 2.51191 3.95276 2.46268 3.91466L0.338679 2.26266C0.298777 2.23149 0.266503 2.19163 0.244305 2.14612C0.222108 2.1006 0.210571 2.05063 0.210571 2C0.210571 1.94936 0.222108 1.89939 0.244305 1.85388C0.266503 1.80836 0.298777 1.76851 0.338679 1.73733L2.46268 0.0839961C2.51209 0.045759 2.57125 0.022178 2.63342 0.0159427C2.69558 0.00970751 2.75825 0.0210691 2.81427 0.0487316C2.87029 0.0763941 2.91741 0.119244 2.95025 0.172393C2.98309 0.225543 3.00033 0.286853 3.00001 0.349329V1.336H11V0.346663C11 0.284181 11.0175 0.222952 11.0506 0.169962C11.0838 0.116971 11.1311 0.0743526 11.1872 0.0469673C11.2434 0.0195819 11.3061 0.00853265 11.3683 0.0150799C11.4304 0.0216271 11.4895 0.0455072 11.5387 0.0839961L13.6613 1.736C13.7012 1.76717 13.7335 1.80703 13.7557 1.85254C13.7779 1.89805 13.7895 1.94803 13.7895 1.99866C13.7895 2.0493 13.7779 2.09927 13.7557 2.14478C13.7335 2.1903 13.7012 2.23015 13.6613 2.26133L11.5387 3.91466C11.4894 3.95322 11.4302 3.97712 11.3679 3.98362C11.3057 3.99011 11.2429 3.97895 11.1866 3.9514C11.1304 3.92385 11.0831 3.88104 11.0501 3.82785C11.0171 3.77466 10.9997 3.71326 11 3.65066V2.66666H3.00001V3.652ZM11.6667 6.66666H2.33335C2.15654 6.66666 1.98697 6.7369 1.86194 6.86193C1.73692 6.98695 1.66668 7.15652 1.66668 7.33333V16.6667C1.66668 16.8435 1.73692 17.013 1.86194 17.1381C1.98697 17.2631 2.15654 17.3333 2.33335 17.3333H11.6667C11.8435 17.3333 12.0131 17.2631 12.1381 17.1381C12.2631 17.013 12.3333 16.8435 12.3333 16.6667V7.33333C12.3333 7.15652 12.2631 6.98695 12.1381 6.86193C12.0131 6.7369 11.8435 6.66666 11.6667 6.66666ZM2.33335 5.33333C1.80291 5.33333 1.29421 5.54404 0.919133 5.91912C0.54406 6.29419 0.333346 6.8029 0.333346 7.33333V16.6667C0.333346 17.1971 0.54406 17.7058 0.919133 18.0809C1.29421 18.4559 1.80291 18.6667 2.33335 18.6667H11.6667C12.1971 18.6667 12.7058 18.4559 13.0809 18.0809C13.456 17.7058 13.6667 17.1971 13.6667 16.6667V7.33333C13.6667 6.8029 13.456 6.29419 13.0809 5.91912C12.7058 5.54404 12.1971 5.33333 11.6667 5.33333H2.33335ZM18.652 8H17.6667V16H18.652C18.7143 16.0002 18.7752 16.0178 18.828 16.0508C18.8807 16.0839 18.9232 16.131 18.9505 16.1869C18.9779 16.2429 18.989 16.3053 18.9827 16.3673C18.9763 16.4292 18.9528 16.4881 18.9147 16.5373L17.2627 18.6613C17.2315 18.7012 17.1916 18.7335 17.1461 18.7557C17.1006 18.7779 17.0506 18.7894 17 18.7894C16.9494 18.7894 16.8994 18.7779 16.8539 18.7557C16.8084 18.7335 16.7685 18.7012 16.7373 18.6613L15.084 16.5373C15.0458 16.488 15.0223 16.429 15.016 16.3669C15.0097 16.3049 15.021 16.2423 15.0485 16.1863C15.076 16.1304 15.1186 16.0832 15.1716 16.0503C15.2245 16.0173 15.2856 15.9999 15.348 16H16.3333V8H15.348C15.2858 7.99982 15.2248 7.98221 15.172 7.94917C15.1193 7.91613 15.0768 7.86898 15.0495 7.81305C15.0222 7.75713 15.011 7.69466 15.0174 7.63274C15.0237 7.57081 15.0472 7.51189 15.0853 7.46266L16.7373 5.33866C16.7685 5.29876 16.8084 5.26649 16.8539 5.24429C16.8994 5.22209 16.9494 5.21055 17 5.21055C17.0506 5.21055 17.1006 5.22209 17.1461 5.24429C17.1916 5.26649 17.2315 5.29876 17.2627 5.33866L18.916 7.46266C18.9542 7.51198 18.9777 7.57102 18.984 7.63307C18.9903 7.69511 18.9791 7.75768 18.9516 7.81365C18.9241 7.86963 18.8814 7.91676 18.8285 7.9497C18.7755 7.98264 18.7144 8.00007 18.652 8Z" fill="#0B3954"></path></svg>