<svg xmlns="http://www.w3.org/2000/svg" width="20" height="13" viewBox="0 0 20 13" fill="none"><path d="M16.6667 2.66667H12.5V7.66667H1.66668V10.1667H2.50001C2.50001 10.8297 2.7634 11.4656 3.23224 11.9344C3.70108 12.4033 4.33697 12.6667 5.00001 12.6667C5.66305 12.6667 6.29894 12.4033 6.76778 11.9344C7.23662 11.4656 7.50001 10.8297 7.50001 10.1667H12.5C12.5 10.8297 12.7634 11.4656 13.2322 11.9344C13.7011 12.4033 14.337 12.6667 15 12.6667C15.6631 12.6667 16.2989 12.4033 16.7678 11.9344C17.2366 11.4656 17.5 10.8297 17.5 10.1667H19.1667V6L16.6667 2.66667ZM5.00001 11.4167C4.66849 11.4167 4.35055 11.285 4.11613 11.0506C3.88171 10.8161 3.75001 10.4982 3.75001 10.1667C3.75001 9.83515 3.88171 9.51721 4.11613 9.28279C4.35055 9.04837 4.66849 8.91667 5.00001 8.91667C5.33153 8.91667 5.64947 9.04837 5.88389 9.28279C6.11831 9.51721 6.25001 9.83515 6.25001 10.1667C6.25001 10.4982 6.11831 10.8161 5.88389 11.0506C5.64947 11.285 5.33153 11.4167 5.00001 11.4167ZM15 11.4167C14.6685 11.4167 14.3505 11.285 14.1161 11.0506C13.8817 10.8161 13.75 10.4982 13.75 10.1667C13.75 9.83515 13.8817 9.51721 14.1161 9.28279C14.3505 9.04837 14.6685 8.91667 15 8.91667C15.3315 8.91667 15.6495 9.04837 15.8839 9.28279C16.1183 9.51721 16.25 9.83515 16.25 10.1667C16.25 10.4982 16.1183 10.8161 15.8839 11.0506C15.6495 11.285 15.3315 11.4167 15 11.4167ZM14.1667 6V3.91667H16.25L17.8833 6H14.1667ZM15 1.83334H11.6667V6.83334H2.50001L1.30834 2.66667H0.833344V1.00001H10.8333L11.6667 0.166672H15V1.83334Z" fill="black"></path></svg>