<svg xmlns="http://www.w3.org/2000/svg" width="19" height="19" viewBox="0 0 19 19" fill="none"><path d="M14.275 6.08334L18.1 2.26667L16.9167 1.08334L1.08332 16.9167L2.26666 18.1L6.08332 14.275L8.64999 16.8417C8.80504 16.9976 8.98942 17.1214 9.19252 17.2058C9.39561 17.2902 9.6134 17.3335 9.83332 17.3333C10.2746 17.3315 10.6972 17.1547 11.0083 16.8417L16.8417 11.0083C17.1546 10.6972 17.3315 10.2747 17.3333 9.83334C17.3335 9.61341 17.2901 9.39563 17.2058 9.19253C17.1214 8.98944 16.9976 8.80505 16.8417 8.65001M3.67499 11.8583L11.8917 3.70834L9.34166 1.15001C9.02917 0.840071 8.60678 0.666321 8.16666 0.666672H2.33332C1.8913 0.666672 1.46737 0.842267 1.15481 1.15483C0.842251 1.46739 0.666656 1.89131 0.666656 2.33334V8.16667C0.668517 8.60799 0.845333 9.03055 1.15832 9.34167M3.58332 2.33334C3.83055 2.33334 4.07222 2.40665 4.27779 2.544C4.48335 2.68135 4.64356 2.87658 4.73817 3.10498C4.83278 3.33339 4.85754 3.58473 4.80931 3.8272C4.76107 4.06968 4.64202 4.29241 4.46721 4.46722C4.29239 4.64204 4.06966 4.76109 3.82719 4.80932C3.58471 4.85755 3.33338 4.8328 3.10497 4.73819C2.87656 4.64358 2.68134 4.48336 2.54399 4.2778C2.40663 4.07224 2.33332 3.83057 2.33332 3.58334C2.33332 3.25182 2.46502 2.93388 2.69944 2.69946C2.93386 2.46503 3.2518 2.33334 3.58332 2.33334Z" fill="black"></path></svg>