
        <svg xmlns="http://www.w3.org/2000/svg" xmlns:xlink="http://www.w3.org/1999/xlink" version="1.1" width="3187.5" height="1125" viewBox="0 0 3187.5 1125">
			
			<g transform="scale(9.375) translate(10, 10)">
				<defs id="SvgjsDefs1119"/><g id="SvgjsG1120" featureKey="symbolFeature-0" transform="matrix(0.10840108401084012,0,0,0.10840108401084012,-4.173441734417344,-4.065040650406504)" fill="#000"><polygon xmlns="http://www.w3.org/2000/svg" class="st0" points="696.7,239.6 508.5,37.5 508.5,441.7 " style="stroke: #222831; stroke-width: 1.1669; stroke-miterlimit: 10;"/><polygon xmlns="http://www.w3.org/2000/svg" class="st0" points="822.2,454.8 832.1,178.8 546.2,464.6 " style="stroke: #222831; stroke-width: 1.1669; stroke-miterlimit: 10;"/><polygon xmlns="http://www.w3.org/2000/svg" class="st0" points="758.9,695.7 961,507.5 556.8,507.5 " style="stroke: #222831; stroke-width: 1.1669; stroke-miterlimit: 10;"/><polygon xmlns="http://www.w3.org/2000/svg" class="st0" points="543.7,821.2 819.7,831.1 533.9,545.2 " style="stroke: #222831; stroke-width: 1.1669; stroke-miterlimit: 10;"/><polygon xmlns="http://www.w3.org/2000/svg" class="st0" points="302.8,757.9 491,960 491,555.8 " style="stroke: #222831; stroke-width: 1.1669; stroke-miterlimit: 10;"/><polygon xmlns="http://www.w3.org/2000/svg" class="st0" points="177.3,542.7 167.4,818.7 453.3,532.9 " style="stroke: #222831; stroke-width: 1.1669; stroke-miterlimit: 10;"/><polygon xmlns="http://www.w3.org/2000/svg" class="st0" points="240.6,301.8 38.5,490 442.7,490 " style="stroke: #222831; stroke-width: 1.1669; stroke-miterlimit: 10;"/><polygon xmlns="http://www.w3.org/2000/svg" class="st0" points="455.8,176.3 179.8,166.4 465.6,452.3 " style="stroke: #222831; stroke-width: 1.1669; stroke-miterlimit: 10;"/><circle xmlns="http://www.w3.org/2000/svg" class="st0" cx="502.7" cy="497" r="31.4" style="stroke: #222831; stroke-width: 1.1669; stroke-miterlimit: 10;"/></g><g id="SvgjsG1121" featureKey="nameFeature-0" transform="matrix(0.9518486111043534,0,0,0.9518486111043534,116.95094334477562,25.645195075153644)" fill="#000"><path d="M15.84 11.289000000000001 c5.8789 0 9.4727 4.3164 9.4727 9.5898 c0 5.4102 -3.5938 9.3945 -9.4727 9.3945 l-5.1953 0 l0 9.7266 l-7.4414 0 l0 -28.711 l12.637 0 z M14.551 24.121000000000002 c2.6563 0 3.6914 -1.25 3.6914 -3.3594 c0 -1.9922 -1.0352 -3.3203 -3.6914 -3.3203 l-3.9063 0 l0 6.6797 l3.9063 0 z M42.38240625 40.39063 c-8.6719 0 -14.902 -5.8789 -14.902 -14.746 c0 -8.9258 6.2305 -14.766 14.902 -14.766 c8.6914 0 14.922 5.8398 14.922 14.766 c0 8.8672 -6.2305 14.746 -14.922 14.746 z M42.38240625 33.6328 c4.3359 0 7.5781 -3.0664 7.5781 -7.9883 s-3.2422 -8.0078 -7.5781 -8.0078 c-4.3164 0 -7.5195 3.0859 -7.5195 8.0078 s3.2031 7.9883 7.5195 7.9883 z M69.23875 33.4766 l8.3984 0 l0 6.5234 l-15.84 0 l0 -28.711 l7.4414 0 l0 22.188 z M104.6091875 11.289000000000001 l-9.4531 14.98 l0 13.73 l-7.4414 0 l0 -13.613 l-9.5117 -15.098 l8.1641 0 l5.0391 8.4766 l5.0781 -8.4766 l8.125 0 z M125.0973125 40 l-8.1055 -11.523 l-1.7773 0 l0 11.523 l-7.4414 0 l0 -28.711 l7.4414 0 l0 10.742 l1.7188 0 l8.3984 -10.742 l9.043 0 l-10.996 13.75 l11.191 14.961 l-9.4727 0 z M157.695625 40 l-1.8555 -5.3125 l-11.484 0 l-1.8359 5.3125 l-7.5586 0 l10.566 -28.711 l9.1602 0 l10.566 28.711 l-7.5586 0 z M146.484625 28.555 l7.2266 0 l-3.6133 -10.391 z M192.40221875 40 l-8.8281 0 l-7.4805 -12.305 l0 12.305 l-7.4414 0 l0 -28.711 l10.996 0 c6.875 0 9.6094 3.9453 9.6094 8.8672 c0 4.043 -2.3828 6.4063 -5.8203 7.1484 z M182.16821875 20.234 c0 -1.7578 -0.99609 -2.8711 -3.75 -2.8711 l-2.3242 0 l0 5.7617 l2.3242 0 c2.7539 0 3.75 -1.1328 3.75 -2.8906 z M213.32034375 11.289000000000001 l0 6.4648 l-6.4844 0 l0 22.246 l-7.3633 0 l0 -22.246 l-6.5039 0 l0 -6.4648 l20.352 0 z"/></g>
			</g>
		</svg>
	