<svg xmlns="http://www.w3.org/2000/svg" xmlns:xlink="http://www.w3.org/1999/xlink" width="2531" height="1174" viewBox="0 0 2531 1174"><defs><style>      .cls-1, .cls-2 {        fill: #fff;      }      .cls-1, .cls-3, .cls-4 {        fill-rule: evenodd;      }      .cls-3, .cls-4 {        fill: #c9c9c9;      }      .cls-4 {        stroke: #959595;        stroke-linecap: round;        stroke-width: 1px;      }      .cls-5 {        fill: #51cdff;      }      .cls-6, .cls-7, .cls-8 {        font-size: 60px;        fill: #0b3954;        font-family: Poppins;      }      .cls-6 {        text-anchor: end;      }      .cls-6, .cls-7 {        font-weight: 500;      }      .cls-8 {        font-weight: 700;      }    </style></defs><path class="cls-1" d="M-109.794-239.851H2531v1946.7H-109.794v-1946.7Z"></path><image x="522" y="171" width="1331" height="916"></image><image x="1091" y="534" width="199" height="199"></image><rect class="cls-2" x="-252" y="4.938" width="838.906" height="1248.122"></rect><g><path class="cls-3" d="M1084,645s-129-7.973-238,108c0,0-123,143.039-257,135l1-38s84,3.839,175-73c0,0,126-122.231,160-131l74-19,78-4Z"></path><path id="Shape_1_copy" data-name="Shape 1 copy" class="cls-3" d="M1086.65,650.609s-45.74-3.535-160.339,198.9c0,0-100.828,216.838-337.19,217.2l-2.027-33.33s170.741-11.53,264.185-135.944c44.806-68.226,96.633-153.069,156.141-251.945,43-27.969,76.14-12.356,76.14-12.356Z"></path></g><g id="Group_1_copy" data-name="Group 1 copy"><path class="cls-3" d="M1084.91,614.5s-129,7.973-238-108c0,0-123-143.039-257-135l1,38s84-3.839,175,73c0,0,126,122.231,160,131l74,19,78,4Z"></path><path id="Shape_1_copy-2" data-name="Shape 1 copy" class="cls-3" d="M1087.56,608.891s-45.74,3.534-160.342-198.9c0,0-100.828-216.839-337.191-217.2L588,226.118s170.74,11.528,264.184,135.946c44.806,68.226,96.633,153.069,156.145,251.945,43,27.969,76.14,12.356,76.14,12.356Z"></path></g><path id="Shape_1_copy_3" data-name="Shape 1 copy 3" class="cls-3" d="M851.279,897.436c44.806-68.226,96.633-153.069,156.141-251.945"></path><path class="cls-4" d="M442,765"></path><path class="cls-1" d="M1085,646"></path><g><path class="cls-3" d="M1302.09,644.031s129-7.973,238,108c0,0,123,143.04,257,135l-1-38s-84,3.839-175-73c0,0-126-122.231-160-131l-74-19-78-4Z"></path><path id="Shape_1_copy-3" data-name="Shape 1 copy" class="cls-3" d="M1299.44,649.64s45.74-3.534,160.34,198.9c0,0,100.83,216.836,337.19,217.2l2.03-33.33s-170.74-11.53-264.19-135.943c-44.8-68.225-96.63-153.069-156.14-251.945-43-27.969-76.14-12.356-76.14-12.356Z"></path></g><g id="Group_1_copy-2" data-name="Group 1 copy"><path class="cls-3" d="M1301.19,613.531s129,7.973,238-108c0,0,123-143.039,257-135l-1,38s-84-3.839-175,73c0,0-126,122.231-160,131l-74,19-78,4Z"></path><path id="Shape_1_copy-4" data-name="Shape 1 copy" class="cls-3" d="M1298.53,607.922s45.74,3.535,160.35-198.9c0,0,100.82-216.839,337.19-217.2l2.02,33.33S1627.35,236.677,1533.91,361.1c-44.81,68.226-96.63,153.07-156.15,251.945-43,27.969-76.14,12.356-76.14,12.356Z"></path></g><path id="Shape_1_copy_3-2" data-name="Shape 1 copy 3" class="cls-3" d="M1534.81,896.467c-44.8-68.225-96.63-153.069-156.14-251.945"></path><path class="cls-4" d="M1944.09,764.031"></path><path class="cls-1" d="M1301.09,645.031"></path><path class="cls-3" d="M1796,607.992H1299v39.016h497V607.992Z"></path><path id="Rectangle_2_copy" data-name="Rectangle 2 copy" class="cls-3" d="M1085.09,607.992h-495v39.079h495V607.992Z"></path><rect class="cls-5" x="587" y="176" width="3" height="90"></rect><rect id="Rectangle_4_copy_4" data-name="Rectangle 4 copy 4" class="cls-5" x="1797" y="174" width="3" height="90"></rect><rect id="Rectangle_4_copy_5" data-name="Rectangle 4 copy 5" class="cls-5" x="1795" y="339" width="3" height="90"></rect><rect id="Rectangle_4_copy_6" data-name="Rectangle 4 copy 6" class="cls-5" x="1795" y="579" width="3" height="90"></rect><rect id="Rectangle_4_copy_7" data-name="Rectangle 4 copy 7" class="cls-5" x="1795" y="819" width="3" height="90"></rect><rect id="Rectangle_4_copy_8" data-name="Rectangle 4 copy 8" class="cls-5" x="1795" y="999" width="3" height="90"></rect><rect id="Rectangle_4_copy" data-name="Rectangle 4 copy" class="cls-5" x="588" y="337" width="3" height="90"></rect><rect id="Rectangle_4_copy_2" data-name="Rectangle 4 copy 2" class="cls-5" x="588" y="827" width="3" height="90"></rect><rect id="Rectangle_4_copy_9" data-name="Rectangle 4 copy 9" class="cls-5" x="588" y="585" width="3" height="90"></rect><rect id="Rectangle_4_copy_3" data-name="Rectangle 4 copy 3" class="cls-5" x="588" y="1007" width="3" height="90"></rect><text id="_Difficulty_in_finding_high-quality_building_materials" data-name=" Difficulty in finding  high-quality building materials" class="cls-6" transform="translate(579.338 206.636) scale(0.58)"><tspan x="0"> Difficulty in finding </tspan><tspan x="0" dy="72">high-quality building materials</tspan></text><text id="Wide_range_of_high-quality_building_materials_available_on_Poly" data-name="Wide range of high-quality building materials available on Poly" class="cls-7" transform="translate(1815.34 206.636) scale(0.58)">Wide range of high-quality building<tspan x="0" dy="72">materials available on Polykart</tspan></text><text id="Fast_and_reliable_delivery_service" data-name="Fast and reliable delivery service" class="cls-7" transform="translate(1815.34 394.637) scale(0.58)">Fast and reliable delivery service</text><text id="Flexible_project_financing_options" data-name="Flexible project financing options" class="cls-7" transform="translate(1815.34 632.637) scale(0.58)">Flexible project financing options</text><text id="Dedicated_support_from_Polykart_s_team_of_experts" data-name="Dedicated support from  Polykart's team of experts" class="cls-7" transform="translate(1815.34 854.637) scale(0.58)">Dedicated support from <tspan x="0" dy="72">Polykart's team of experts</tspan></text><text id="Competitive_pricing_on_all_building_materials_on_Polykart" data-name="Competitive pricing on all building  materials on Polykart" class="cls-7" transform="translate(1815.34 1032.636) scale(0.58)">Competitive pricing on all building <tspan x="0" dy="72">materials on Polykart</tspan></text><text id="Problem" class="cls-8" x="202.908" y="93.806">Problem</text><text id="Solution" class="cls-8" x="1991.907" y="93.806">Solution</text><text id="Delay_in_receiving_building_materials" data-name="Delay in receiving  building materials" class="cls-6" transform="translate(579.338 370.636) scale(0.58)"><tspan x="0">Delay in receiving</tspan><tspan x="0" dy="72"> building materials</tspan></text><text id="Managing_project_expenses" data-name="Managing project expenses" class="cls-6" transform="translate(579.338 636.637) scale(0.58)"><tspan x="0">Managing project expenses</tspan></text><text id="Limited_support" data-name="Limited support" class="cls-6" transform="translate(579.338 878.637) scale(0.58)"><tspan x="0">Limited support</tspan></text><text id="High_building_material_costs" data-name="High building material costs" class="cls-6" transform="translate(579.338 1056.636) scale(0.58)"><tspan x="0">High building material costs</tspan></text></svg>