<svg xmlns="http://www.w3.org/2000/svg" width="110" height="110" viewBox="0 0 110 110" fill="none"><path d="M105.926 22.4073H101.852V67.2223H105.926V22.4073Z" fill="#B9B9B9"></path><path d="M105.926 59.0741H101.852V67.2223H105.926V59.0741Z" fill="#A8A8A8"></path><path d="M61.111 38.7037H52.963V30.5555L55 26.4814H61.111V38.7037Z" fill="#B9B9B9"></path><path d="M79.4444 38.7037H69.259V22.4073H77.4072L79.4444 30.5555V38.7037Z" fill="#B9B9B9"></path><path d="M67.2221 89.6296H63.1481C60.8971 89.6296 59.074 87.8065 59.074 85.5556V48.889H71.2962V85.5558C71.2962 87.8065 69.4731 89.6296 67.2221 89.6296Z" fill="#B9B9B9"></path><path d="M26.4814 89.6295H22.4073C20.1564 89.6295 18.3333 87.8064 18.3333 85.5554V34.6295H30.5555V85.5554C30.5555 87.8064 28.7323 89.6295 26.4814 89.6295Z" fill="#8F563B"></path><path d="M105.926 89.6296H101.852C99.6009 89.6296 97.7777 87.8064 97.7777 85.5555V67.2223C97.7777 64.9714 99.6009 63.1482 101.852 63.1482H105.926C108.177 63.1482 110 64.9714 110 67.2223V85.5555C110 87.8064 108.177 89.6296 105.926 89.6296Z" fill="#DC4D41"></path><path d="M30.5554 24.4446H42.7777V30.5556L38.7036 34.6297H30.5554V24.4446Z" fill="#A2A2A2"></path><path d="M20.3701 24.4446H6.11096V34.6297H20.3701V24.4446Z" fill="#A2A2A2"></path><path d="M8.14816 20.3705H0V38.7037H8.14816V20.3705Z" fill="#B9B9B9"></path><path d="M79.4443 48.889L71.2962 52.9631H57.0368L50.9258 48.889V36.6667H79.4443V48.889Z" fill="#CDCDCD"></path><path d="M69.2591 42.7778H61.111V46.8519H69.2591V42.7778Z" fill="#A8A8A8"></path><path d="M67.2223 79.4446H63.1482V83.5187H67.2223V79.4446Z" fill="#A8A8A8"></path><path d="M110 71.2964H97.7777V67.2223C97.7777 64.9714 99.6009 63.1482 101.852 63.1482H105.926C108.177 63.1482 110 64.9714 110 67.2223V71.2964Z" fill="#B94137"></path><path d="M89.6296 2.03699H85.5555V6.11107H89.6296V2.03699Z" fill="#F7E4BA"></path><path d="M89.6296 14.2592H85.5555V18.3332H89.6296V14.2592Z" fill="#F7E4BA"></path><path d="M95.7408 8.14832H91.6667V12.2224H95.7408V8.14832Z" fill="#F7E4BA"></path><path d="M83.5185 8.14832H79.4445V12.2224H83.5185V8.14832Z" fill="#F7E4BA"></path><path d="M46.8518 91.6667H42.7777V95.7408H46.8518V91.6667Z" fill="#F7E4BA"></path><path d="M46.8518 103.889H42.7777V107.963H46.8518V103.889Z" fill="#F7E4BA"></path><path d="M52.9631 97.7778H48.889V101.852H52.9631V97.7778Z" fill="#F7E4BA"></path><path d="M40.7408 97.7778H36.6667V101.852H40.7408V97.7778Z" fill="#F7E4BA"></path><path d="M32.5926 22.4073H16.2963V36.6665H32.5926V22.4073Z" fill="#B9B9B9"></path><path d="M71.2965 52.963H59.0742V59.074H71.2965V52.963Z" fill="#A8A8A8"></path><path d="M30.5555 36.6667H18.3333V42.7778H30.5555V36.6667Z" fill="#744630"></path></svg>