<svg xmlns="http://www.w3.org/2000/svg" width="110" height="110" viewBox="0 0 110 110" fill="none"><path d="M27.5 5.15625H41.25C44.8967 5.15625 48.3941 6.60491 50.9727 9.18353C53.5513 11.7622 55 15.2595 55 18.9062V22.3438H41.25C37.6033 22.3438 34.1059 20.8951 31.5273 18.3165C28.9487 15.7378 27.5 12.2405 27.5 8.59375V5.15625Z" fill="#8EC13F"></path><path d="M35.2771 13.537L36.9237 10.5189L55.8322 20.8346L54.1857 23.8527L35.2771 13.537Z" fill="#40824C"></path><path d="M68.75 30.9375H55V27.5C55 23.8533 56.4487 20.3559 59.0273 17.7773C61.6059 15.1987 65.1033 13.75 68.75 13.75H82.5V17.1875C82.5 20.8342 81.0513 24.3316 78.4727 26.9102C75.8941 29.4888 72.3967 30.9375 68.75 30.9375Z" fill="#55B56A"></path><path d="M54.1875 29.4309L73.0961 19.1152L74.7426 22.1333L55.8341 32.449L54.1875 29.4309Z" fill="#40824C"></path><path d="M77.3438 46.4062V39.5312H32.6562V46.4062L27.5 53.2812V97.9688C27.5 99.7921 28.2243 101.541 29.5136 102.83C30.803 104.119 32.5516 104.844 34.375 104.844H75.625C77.4484 104.844 79.197 104.119 80.4864 102.83C81.7757 101.541 82.5 99.7921 82.5 97.9688V53.2812L77.3438 46.4062Z" fill="#CDEEF6"></path><path d="M70.4688 104.844H42.9688V94.5312H70.4688V104.844Z" fill="#F9BB4B"></path><path d="M61.875 94.5312H65.3125V99.6875H61.875V94.5312Z" fill="#66342E"></path><path d="M55 94.5312H58.4375V99.6875H55V94.5312Z" fill="#66342E"></path><path d="M48.125 94.5312H51.5625V99.6875H48.125V94.5312Z" fill="#66342E"></path><path d="M75.625 94.5312H48.125V84.2188H75.625V94.5312Z" fill="#FFD782"></path><path d="M67.0312 84.2188H70.4688V89.375H67.0312V84.2188Z" fill="#66342E"></path><path d="M60.1562 84.2188H63.5938V89.375H60.1562V84.2188Z" fill="#66342E"></path><path d="M53.2812 84.2188H56.7188V89.375H53.2812V84.2188Z" fill="#66342E"></path><path d="M68.75 84.2188H41.25V73.9062H68.75V84.2188Z" fill="#F9BB4B"></path><path d="M60.1562 73.9062H63.5938V79.0625H60.1562V73.9062Z" fill="#66342E"></path><path d="M53.2812 73.9062H56.7188V79.0625H53.2812V73.9062Z" fill="#66342E"></path><path d="M46.4062 73.9062H49.8438V79.0625H46.4062V73.9062Z" fill="#66342E"></path><path d="M72.1875 73.9062H44.6875V63.5938H72.1875V73.9062Z" fill="#FFD782"></path><path d="M63.5938 63.5938H67.0312V68.75H63.5938V63.5938Z" fill="#66342E"></path><path d="M56.7188 63.5938H60.1562V68.75H56.7188V63.5938Z" fill="#66342E"></path><path d="M49.8438 63.5938H53.2812V68.75H49.8438V63.5938Z" fill="#66342E"></path><path d="M63.5938 63.5938H36.0938V53.2812H63.5938V63.5938Z" fill="#F9BB4B"></path><path d="M55 53.2812H58.4375V58.4375H55V53.2812Z" fill="#66342E"></path><path d="M48.125 53.2812H51.5625V58.4375H48.125V53.2812Z" fill="#66342E"></path><path d="M41.25 53.2812H44.6875V58.4375H41.25V53.2812Z" fill="#66342E"></path><path d="M32.6562 44.6875H60.1562V48.125H32.6562V44.6875Z" fill="#F4F4E6"></path><path d="M68.75 44.6875H77.3438V48.125H68.75V44.6875Z" fill="#F4F4E6"></path><path d="M53.2812 20.625H56.7188V39.5312H53.2812V20.625Z" fill="#40824C"></path></svg>