<svg xmlns="http://www.w3.org/2000/svg" width="110" height="110" viewBox="0 0 110 110" fill="none"><path d="M12.0312 36.0938H15.4688V56.7188H12.0312V36.0938Z" fill="#AD6327"></path><path d="M94.5312 36.0938H97.9688V56.7188H94.5312V36.0938Z" fill="#AD6327"></path><path d="M104.792 56.7188C104.351 69.6305 98.9119 81.8661 89.6224 90.8446C80.3329 99.8231 67.9192 104.842 55 104.844C52.8328 104.849 50.6678 104.705 48.5203 104.414C36.8254 102.872 26.056 97.2342 18.1259 88.5016C10.1957 79.769 5.61853 68.5076 5.20776 56.7188H104.792Z" fill="#2D75BB"></path><path d="M28.0843 67.8047L24.6468 74.6797L28.0843 79.8359L34.9593 83.2734L29.8031 91.8672L24.6468 90.1484L20.2296 90.6812C11.0152 81.7314 5.63047 69.5572 5.20776 56.7188H36.6781V60.9297L31.5218 62.6484V66.0859L28.0843 67.8047Z" fill="#C8D952"></path><path d="M73.9062 68.75V75.625L68.75 79.0625L72.1875 84.2188L77.3438 82.5L84.2188 84.2188L87.6562 75.625L82.5 70.4688L91.0938 63.5938L88.3438 56.7188H70.4688L68.75 63.5938L73.9062 68.75Z" fill="#C8D952"></path><path d="M80.7126 97.6938C72.9565 102.383 64.0634 104.856 55.0001 104.844C52.8329 104.849 50.6679 104.705 48.5204 104.414L51.5626 98.3469V91.4719L55.0001 86.3157L58.4376 88.0344L60.1563 91.4719L63.5938 94.9094H70.4688L75.6251 91.4719L80.7126 97.6938Z" fill="#C8D952"></path><path d="M22.825 87.7302C16.0516 80.7526 11.7658 71.7376 10.6305 62.0796L14.0439 61.6705C15.0923 70.5844 19.0483 78.9047 25.3 85.3446L22.825 87.7302Z" fill="#F4F4E6"></path><path d="M34.375 5.15625H55V56.7188H34.375V5.15625Z" fill="#CFDFE8"></path><path d="M55 15.4688H75.625V56.7188H55V15.4688Z" fill="#AABECE"></path><path d="M46.4062 10.3125H49.8438V13.75H46.4062V10.3125Z" fill="#FFF69A"></path><path d="M39.5312 10.3125H42.9688V13.75H39.5312V10.3125Z" fill="#FFF69A"></path><path d="M46.4062 17.1875H49.8438V20.625H46.4062V17.1875Z" fill="#FFF69A"></path><path d="M39.5312 17.1875H42.9688V20.625H39.5312V17.1875Z" fill="#FFF69A"></path><path d="M46.4062 24.0625H49.8438V27.5H46.4062V24.0625Z" fill="#FFF69A"></path><path d="M39.5312 24.0625H42.9688V27.5H39.5312V24.0625Z" fill="#FFF69A"></path><path d="M46.4062 30.9375H49.8438V34.375H46.4062V30.9375Z" fill="#FFF69A"></path><path d="M39.5312 30.9375H42.9688V34.375H39.5312V30.9375Z" fill="#FFF69A"></path><path d="M46.4062 37.8125H49.8438V41.25H46.4062V37.8125Z" fill="#FFF69A"></path><path d="M39.5312 37.8125H42.9688V41.25H39.5312V37.8125Z" fill="#FFF69A"></path><path d="M46.4062 44.6875H49.8438V48.125H46.4062V44.6875Z" fill="#FFF69A"></path><path d="M39.5312 44.6875H42.9688V48.125H39.5312V44.6875Z" fill="#FFF69A"></path><path d="M67.0312 20.625H70.4688V24.0625H67.0312V20.625Z" fill="#FFF69A"></path><path d="M60.1562 20.625H63.5938V24.0625H60.1562V20.625Z" fill="#FFF69A"></path><path d="M67.0312 27.5H70.4688V30.9375H67.0312V27.5Z" fill="#FFF69A"></path><path d="M60.1562 27.5H63.5938V30.9375H60.1562V27.5Z" fill="#FFF69A"></path><path d="M67.0312 34.375H70.4688V37.8125H67.0312V34.375Z" fill="#FFF69A"></path><path d="M60.1562 34.375H63.5938V37.8125H60.1562V34.375Z" fill="#FFF69A"></path><path d="M67.0312 41.25H70.4688V44.6875H67.0312V41.25Z" fill="#FFF69A"></path><path d="M60.1562 41.25H63.5938V44.6875H60.1562V41.25Z" fill="#FFF69A"></path><path d="M67.0312 48.125H70.4688V51.5625H67.0312V48.125Z" fill="#FFF69A"></path><path d="M60.1562 48.125H63.5938V51.5625H60.1562V48.125Z" fill="#FFF69A"></path><path d="M20.6251 30.9375C20.5133 30.9375 20.4102 30.965 20.2985 30.9702C20.5092 30.41 20.6198 29.8172 20.6251 29.2188C20.6251 27.8512 20.0818 26.5397 19.1148 25.5727C18.1479 24.6057 16.8363 24.0625 15.4688 24.0625C14.1013 24.0625 12.7898 24.6057 11.8228 25.5727C10.8558 26.5397 10.3126 27.8512 10.3126 29.2188C10.3179 29.8172 10.4284 30.41 10.6391 30.9702C10.5291 30.9633 10.4243 30.9375 10.3126 30.9375C9.45879 30.9351 8.61778 31.1448 7.86503 31.5476C7.11229 31.9505 6.47135 32.534 5.99977 33.2457C5.52819 33.9574 5.24072 34.7751 5.16317 35.6253C5.08561 36.4756 5.22039 37.3318 5.55542 38.1171C5.89045 38.9024 6.41524 39.5922 7.08267 40.1246C7.75011 40.657 8.53931 41.0154 9.37942 41.1675C10.2195 41.3196 11.0843 41.2607 11.896 40.9961C12.7078 40.7315 13.4411 40.2695 14.0302 39.6516C14.375 40.8824 15.0567 41.9925 15.9984 42.8568C16.9402 43.7211 18.1046 44.3052 19.3604 44.5433C20.6163 44.7814 21.9137 44.6641 23.1065 44.2045C24.2992 43.7449 25.3399 42.9613 26.1113 41.942C26.8827 40.9228 27.354 39.7084 27.4723 38.4356C27.5906 37.1629 27.3511 35.8824 26.7808 34.7384C26.2105 33.5945 25.3321 32.6325 24.2445 31.961C23.1568 31.2894 21.9033 30.9349 20.6251 30.9375Z" fill="#55B56A"></path><path d="M89.375 30.9375C89.4867 30.9375 89.5899 30.965 89.7016 30.9702C89.4909 30.41 89.3803 29.8172 89.375 29.2188C89.375 27.8512 89.9183 26.5397 90.8853 25.5727C91.8522 24.6057 93.1638 24.0625 94.5313 24.0625C95.8988 24.0625 97.2103 24.6057 98.1773 25.5727C99.1443 26.5397 99.6875 27.8512 99.6875 29.2188C99.6822 29.8172 99.5717 30.41 99.361 30.9702C99.471 30.9702 99.5758 30.9375 99.6875 30.9375C100.541 30.9351 101.382 31.1448 102.135 31.5476C102.888 31.9505 103.529 32.534 104 33.2457C104.472 33.9574 104.759 34.7751 104.837 35.6253C104.914 36.4756 104.78 37.3318 104.445 38.1171C104.11 38.9024 103.585 39.5922 102.917 40.1246C102.25 40.657 101.461 41.0154 100.621 41.1675C99.7805 41.3196 98.9158 41.2607 98.1041 40.9961C97.2923 40.7315 96.559 40.2695 95.9699 39.6516C95.6251 40.8824 94.9434 41.9925 94.0017 42.8568C93.0599 43.7211 91.8955 44.3052 90.6396 44.5433C89.3838 44.7814 88.0864 44.6641 86.8936 44.2045C85.7009 43.7449 84.6602 42.9613 83.8888 41.942C83.1174 40.9228 82.646 39.7084 82.5277 38.4356C82.4095 37.1629 82.6489 35.8824 83.2193 34.7384C83.7896 33.5945 84.668 32.6325 85.7556 31.961C86.8432 31.2894 88.0968 30.9349 89.375 30.9375Z" fill="#55B56A"></path></svg>