<svg xmlns="http://www.w3.org/2000/svg" width="43" height="57" viewBox="0 0 43 57" fill="none"><ellipse cx="30.8178" cy="44.9423" rx="10.4135" ry="10.9615" fill="#FFB128"></ellipse><path d="M6.94367 20.9022C6.94367 20.3882 7.36114 19.9704 7.87543 19.9704H30.0796C30.5945 19.9704 31.0111 20.3879 31.0111 20.9022C31.0111 21.417 30.5942 21.8339 30.0796 21.8339H7.87543C7.36144 21.8336 6.94367 21.4188 6.94367 20.9022ZM7.87543 29.9093H30.0796C30.5945 29.9093 31.0111 29.4909 31.0111 28.9778C31.0111 28.4665 30.5942 28.0461 30.0796 28.0461H7.87543C7.36144 28.0461 6.94367 28.4629 6.94367 28.9778C6.94367 29.4927 7.36144 29.9093 7.87543 29.9093ZM17.4766 36.1178H7.87722C7.36323 36.1178 6.94546 36.538 6.94546 37.0493C6.94546 37.5663 7.36293 37.9811 7.87722 37.9811H17.4766C17.9918 37.9811 18.4084 37.5663 18.4084 37.0493C18.4084 36.5347 17.9918 36.1178 17.4766 36.1178ZM16.2341 44.1935H7.87722C7.36323 44.1935 6.94546 44.6104 6.94546 45.1252C6.94546 45.6383 7.36293 46.0567 7.87722 46.0567H16.2341C16.749 46.0567 17.1658 45.6383 17.1658 45.1252C17.1655 44.6101 16.749 44.1935 16.2341 44.1935ZM42.5511 45.278C42.5511 51.7432 37.2961 57.0003 30.8291 57.0003C27.8067 57.0003 25.0589 55.8432 22.9772 53.9578C22.9755 53.9578 22.9719 53.9617 22.9683 53.9617H1.38C0.865114 53.9617 0.448242 53.5413 0.448242 53.03V9.45029C0.448242 8.936 0.865114 8.51853 1.38 8.51853H9.24827V5.95843C9.24827 5.44443 9.66574 5.02697 10.18 5.02697H13.9985C13.9985 5.01232 13.9985 4.99529 13.9985 4.98065C13.9985 2.23348 16.2341 0 18.9807 0C21.7275 0 23.9619 2.23348 23.9619 4.98035C23.9619 4.99499 23.9619 5.01202 23.9619 5.02667H27.7792C28.2926 5.02667 28.7109 5.44414 28.7109 5.95813V8.51823H36.5771C37.0923 8.51823 37.5086 8.9357 37.5086 9.44999V35.6552C40.5534 37.7755 42.5511 41.2966 42.5511 45.278ZM11.1115 11.4537H26.8459V6.89168H22.8954C22.6106 6.89168 22.3368 6.7599 22.1593 6.53219C21.9818 6.30448 21.9209 6.00923 21.9917 5.73161C22.0643 5.44593 22.0975 5.20925 22.0975 4.98184C22.0975 3.26236 20.698 1.86472 18.9786 1.86472C17.2591 1.86472 15.8596 3.26236 15.8596 4.98184C15.8596 5.20925 15.8934 5.45489 15.9633 5.7352C16.0324 6.01252 15.9696 6.30836 15.7942 6.53398C15.6197 6.7596 15.3474 6.89138 15.06 6.89138H11.1115V11.4537ZM2.31176 52.0943H21.3115C19.9294 50.1728 19.1053 47.8219 19.1053 45.2777C19.1053 38.8145 24.3641 33.5521 30.8273 33.5521C32.5432 33.5521 34.1703 33.9343 35.6421 34.5986V10.38H28.7074V12.3815C28.7074 12.8955 28.289 13.313 27.7759 13.313H10.1782C9.66424 13.313 9.24648 12.8955 9.24648 12.3815V10.38H2.30997L2.31176 52.0943ZM40.6882 45.278C40.6882 39.8413 36.2645 35.4156 30.8294 35.4156C25.3942 35.4156 20.9706 39.841 20.9706 45.278C20.9706 50.7152 25.3942 55.137 30.8294 55.137C36.2645 55.137 40.6882 50.7152 40.6882 45.278ZM35.9678 41.3946L30.2613 46.8665L26.4001 43.7805C25.9978 43.4605 25.4136 43.5256 25.09 43.926C24.7696 44.3301 24.8351 44.9122 25.2352 45.2361L29.7336 48.8353C29.9045 48.97 30.1104 49.0355 30.3157 49.0355C30.5485 49.0355 30.7819 48.9482 30.96 48.7755L37.254 42.7397C37.623 42.3867 37.6377 41.7918 37.2812 41.4224C36.925 41.0474 36.3372 41.0399 35.9678 41.3946Z" fill="#0B3954"></path></svg>