<svg xmlns="http://www.w3.org/2000/svg" width="50" height="50" viewBox="0 0 50 50" fill="none"><path d="M42.5 0.833336H24.1667H7.5" stroke="#0B3954" stroke-width="1.6" stroke-linecap="round" stroke-linejoin="round"></path><path d="M42.5 0.833336L35 20.8333" stroke="#0B3954" stroke-width="1.6" stroke-linecap="round" stroke-linejoin="round"></path><path d="M7.5 0.833336L15 20.8333" stroke="#0B3954" stroke-width="1.6" stroke-linecap="round" stroke-linejoin="round"></path><path d="M25.0003 49.1666C33.7448 49.1666 40.8336 42.0778 40.8336 33.3333C40.8336 24.5888 33.7448 17.5 25.0003 17.5C16.2558 17.5 9.16699 24.5888 9.16699 33.3333C9.16699 42.0778 16.2558 49.1666 25.0003 49.1666Z" fill="#FFB128" stroke="#0B3954" stroke-width="1.6" stroke-linecap="round" stroke-linejoin="round"></path><path d="M20 0.833336L21.6667 17.5" stroke="#0B3954" stroke-width="1.6" stroke-linecap="round" stroke-linejoin="round"></path><path d="M29.9997 0.833336L28.333 17.5" stroke="#0B3954" stroke-width="1.6" stroke-linecap="round" stroke-linejoin="round"></path><path d="M25.8164 25.5833L27.333 29.9C27.386 30.0653 27.4875 30.2109 27.6241 30.3178C27.7608 30.4248 27.9265 30.4883 28.0997 30.5L32.4997 30.6833C32.6982 30.6769 32.8932 30.7362 33.0544 30.8521C33.2157 30.968 33.334 31.134 33.3911 31.3242C33.4482 31.5145 33.4407 31.7182 33.3699 31.9037C33.2991 32.0893 33.169 32.2462 32.9997 32.35L29.5497 35.2C29.4181 35.3162 29.3207 35.466 29.2679 35.6334C29.215 35.8007 29.2087 35.9793 29.2497 36.15L30.4497 40.5833C30.501 40.7555 30.4985 40.9392 30.4427 41.1099C30.3869 41.2806 30.2804 41.4303 30.1374 41.5389C29.9943 41.6476 29.8216 41.71 29.6421 41.7179C29.4627 41.7259 29.2851 41.6789 29.133 41.5833L25.483 39.0167C25.341 38.9185 25.1724 38.8659 24.9997 38.8659C24.827 38.8659 24.6584 38.9185 24.5164 39.0167L20.8664 41.5167C20.7143 41.6123 20.5367 41.6592 20.3572 41.6513C20.1778 41.6433 20.005 41.5809 19.862 41.4723C19.719 41.3636 19.6124 41.214 19.5566 41.0432C19.5008 40.8725 19.4984 40.6888 19.5497 40.5167L20.7497 36.0833C20.7906 35.9127 20.7843 35.7341 20.7315 35.5667C20.6786 35.3994 20.5812 35.2495 20.4497 35.1333L16.9997 32.2833C16.8304 32.1795 16.7002 32.0226 16.6295 31.8371C16.5587 31.6515 16.5512 31.4478 16.6083 31.2576C16.6653 31.0674 16.7837 30.9014 16.9449 30.7855C17.1062 30.6695 17.3012 30.6102 17.4997 30.6167L21.8997 30.4333C22.0729 30.4216 22.2385 30.3581 22.3752 30.2512C22.5119 30.1442 22.6133 29.9986 22.6664 29.8333L24.183 25.5167C24.2495 25.3501 24.366 25.2083 24.5165 25.1107C24.667 25.0132 24.8441 24.9647 25.0233 24.972C25.2025 24.9793 25.375 25.0421 25.517 25.1516C25.6591 25.261 25.7637 25.4119 25.8164 25.5833Z" fill="white" stroke="#0B3954" stroke-width="1.6" stroke-linecap="round" stroke-linejoin="round"></path></svg>