<svg xmlns="http://www.w3.org/2000/svg" width="52" height="52" viewBox="0 0 52 52" fill="none"><path d="M48.5 42.5C43.5264 39.8625 39.7114 38.3836 36.3152 37.8166L36.6667 37.3334C36.8334 37.1667 36.9167 36.9167 36.8334 36.6667L36.0524 33.5429C38.1179 30.623 39.3333 26.9725 39.3333 23.5V20.1667H40.1666H41.8333C42.3333 20.1667 42.6666 19.8334 42.6666 19.3334C42.6666 18.8334 42.3333 18.5001 41.8333 18.5001H41V17.6668C41 11.0835 36.6667 5.50014 30.1666 3.66677V3.49997C30.1666 2.16659 29.0834 1 27.6667 1H24.3333C22.9999 1 21.8333 2.08329 21.8333 3.49997V3.66667C15.3333 5.50005 11 11.0834 11 17.6667V18.5H10.1667C9.6667 18.5 9.3334 18.8333 9.3334 19.3333C9.3334 19.8333 9.6667 20.1666 10.1667 20.1666H11.8334H12.6667V23.4999C12.6667 26.9724 13.8821 30.6229 15.9476 33.5429L15.1666 36.6667C15.1666 36.8334 15.1666 37.1667 15.3333 37.3334L15.6848 37.8166C12.2887 38.3837 8.4736 39.8625 3.49997 42.5C1.91669 43.2501 1 44.8334 1 46.5834V50.1667C1 50.6667 1.3333 51 1.83329 51H21.8333H22.1666H29.8334H30.1666H50.1667C50.6667 51 51 50.6667 51 50.1667V46.5834C51.0001 44.9167 50 43.3334 48.5 42.5ZM25.5003 41.7287L26.0048 40.5937L27.2503 43.3339L28.0649 45.1667H24.0001L25.5003 41.7287ZM23.3667 46.8334H28.6271L29.1032 49.3333H22.8667L23.3667 46.8334ZM34.75 35.1667L35.0833 36.6667L34.232 37.8355C34.1777 37.8799 34.1275 37.9337 34.0833 38L30.6171 42.7993L29.5172 44.3096L27.2706 39.2547C29.9561 38.9272 32.3533 37.5791 34.2894 35.6418C34.3109 35.6205 34.3324 35.5995 34.3538 35.578C34.3589 35.5728 34.3641 35.5675 34.3692 35.5622C34.4976 35.4335 34.6246 35.3018 34.75 35.1667ZM33.6643 7.09494C33.7569 7.1565 33.8486 7.21905 33.9393 7.28279C35.0016 8.07438 35.9821 9.00169 36.7501 9.99999L32.9167 10.75L33.6643 7.09494ZM19.0834 10.75L15.25 9.99999C16.018 9.00159 16.9986 8.07428 18.0609 7.28269C18.1515 7.21905 18.2432 7.1565 18.3358 7.09494L19.0834 10.75ZM12.6667 17.6667C12.6667 15.4492 13.2249 13.3572 14.2353 11.529L20.0001 12.6668C20.0834 12.6668 20.0834 12.6668 20.1668 12.6668C20.4168 12.6668 20.5835 12.5835 20.8335 12.5001C21.0835 12.3334 21.1668 12.0001 21.0835 11.7501L19.9394 6.18223C20.542 5.89232 21.1743 5.64331 21.8335 5.43859V7.66672C21.8335 8.16671 22.1667 8.50001 22.6667 8.50001C23.1667 8.50001 23.5 8.16671 23.5 7.66672V4.33336V3.49997C23.5 3.08328 23.8333 2.66668 24.3333 2.66668H27.6667C28.0834 2.66668 28.5 2.99998 28.5 3.49997V4.33326V7.66662C28.5 8.16661 28.8333 8.49991 29.3333 8.49991C29.8333 8.49991 30.1666 8.16661 30.1666 7.66662V5.43859C30.8476 5.65006 31.5004 5.9086 32.121 6.21092L30.9999 11.6668C30.9999 11.9168 31.0832 12.2501 31.2499 12.4168C31.4166 12.5835 31.5832 12.6668 31.8332 12.6668C31.9165 12.6668 31.9165 12.6668 31.9999 12.6668L37.7273 11.461C38.7615 13.3053 39.3332 15.4218 39.3332 17.6667V18.5H38.5H13.5H12.6668L12.6667 17.6667ZM14.3333 20.1667H37.6667V23.5C37.6667 27.1337 36.4202 30.3627 34.5486 32.8171L34.5 32.8333C34.4167 32.9166 34.3333 33 34.25 33.0833C33.8307 33.6424 33.3882 34.1521 32.9259 34.6117C30.9637 36.4397 28.6233 37.5469 26.3681 37.6566C26.2547 37.6079 26.1274 37.5834 26 37.5834C25.8719 37.5834 25.7565 37.6085 25.6529 37.6577C24.2725 37.5944 22.8596 37.1568 21.5204 36.4083C20.1637 35.6289 18.8874 34.5052 17.7499 33.0833C17.6666 33 17.5832 32.9166 17.4999 32.8333L17.4513 32.8171C15.5798 30.3626 14.3332 27.1336 14.3332 23.5L14.3333 20.1667ZM24.7294 39.2549L22.4828 44.3097L21.3829 42.7995L17.9167 38.0002C17.8902 37.9736 17.8608 37.9473 17.8304 37.9214L16.9167 36.6668L17.25 35.1668C17.363 35.2884 17.4776 35.407 17.5932 35.5236C19.5495 37.5243 21.9894 38.9207 24.7294 39.2549ZM2.66668 46.5834C2.66668 45.5001 3.24997 44.5 4.25006 44C9.56185 41.178 13.3857 39.7617 16.7919 39.3387L21.7648 46.1764L21.1335 49.3332H2.66668V46.5834ZM49.3334 49.3334H30.8667L30.2354 46.1766L35.2621 39.2648C38.6564 39.777 42.5487 41.1922 47.75 43.9168C48.75 44.5001 49.3334 45.5002 49.3334 46.5835V49.3334Z" fill="#FFB128" stroke="#FFB128" stroke-width="0.4"></path></svg>