<svg xmlns="http://www.w3.org/2000/svg" width="60" height="60" viewBox="0 0 60 60" fill="none"><path d="M30 10.5V25C33.6667 25.1667 42 24 46 18L40.5 13L33 10L30 10.5Z" fill="#FFB128"></path><path d="M30 35.5V50C26.3333 50.1667 18 47 14 41L19.5 38L27 35L30 35.5Z" fill="#FFB128"></path><path d="M30 50C41.0457 50 50 41.0457 50 30C50 18.9543 41.0457 10 30 10C18.9543 10 10 18.9543 10 30C10 41.0457 18.9543 50 30 50Z" stroke="#0B3954" stroke-width="2"></path><path d="M46.4298 18.0159C44.6206 20.1338 42.2171 21.8715 39.4178 23.0855C36.6186 24.2996 33.5041 24.955 30.3313 24.9978C27.1588 25.0405 24.0193 24.4693 21.1721 23.3314C18.3249 22.1935 15.8518 20.5214 13.957 18.4535" stroke="#0B3954" stroke-width="2"></path><path d="M46.4298 41.984C44.6206 39.8662 42.2171 38.1285 39.4178 36.9145C36.6186 35.7005 33.5041 35.045 30.3313 35.0022C27.1588 34.9595 24.0193 35.5307 21.1721 36.6685C18.3249 37.8065 15.8518 39.4785 13.957 41.5465" stroke="#0B3954" stroke-width="2"></path><path d="M30 10V50" stroke="#0B3954" stroke-width="2"></path></svg>