<svg xmlns="http://www.w3.org/2000/svg" width="43" height="43" viewBox="0 0 43 43" fill="none"><rect x="0.915039" y="14.6383" width="10.0638" height="27.4468" fill="#FFB128"></rect><path fill-rule="evenodd" clip-rule="evenodd" d="M4.3 37.2667C4.3 38.0571 4.94285 38.7 5.73334 38.7C6.52382 38.7 7.16667 38.0571 7.16667 37.2667C7.16667 36.4762 6.52382 35.8333 5.73334 35.8333C4.94285 35.8333 4.3 36.4762 4.3 37.2667ZM42.7893 21.687L38.8563 37.4437C38.2306 39.9484 36.4812 41.5667 34.4 41.5667H23.65C21.6677 41.5667 20.3089 40.7898 18.9945 40.0387C17.7898 39.35 16.651 38.7 15.05 38.7H13.6167C13.2211 38.7 12.9 38.3797 12.9 37.9833C12.9 37.587 13.2211 37.2667 13.6167 37.2667H15.05C17.0323 37.2667 18.3911 38.0435 19.7055 38.7946C20.9102 39.4833 22.049 40.1333 23.65 40.1333H34.4C36.1028 40.1333 37.1162 38.4972 37.4659 37.0968L41.4019 21.3266C41.6584 20.3741 41.624 19.6854 41.3022 19.2654C40.9023 18.743 40.056 18.6333 39.4167 18.6333H29.3833C28.5663 18.6333 27.8296 18.3639 27.2333 17.9202V20.7833C27.2333 24.4003 24.4004 27.2333 20.7833 27.2333C20.3877 27.2333 20.0667 26.913 20.0667 26.5167C20.0667 26.1203 20.3877 25.8 20.7833 25.8C23.5963 25.8 25.8 23.5962 25.8 20.7833V6.45C25.8 3.26227 23.9718 1.43333 20.7833 1.43333C19.618 1.43333 18.6333 2.41803 18.6333 3.58333V10.75C18.6333 14.9282 15.5388 18.2514 11.4667 18.6025V42.2833C11.4667 42.6796 11.1456 43 10.75 43H0.716667C0.321067 43 0 42.6796 0 42.2833V15.05C0 14.6537 0.321067 14.3333 0.716667 14.3333H10.75C11.1456 14.3333 11.4667 14.6537 11.4667 15.05C11.4667 15.4463 11.1456 15.7667 10.75 15.7667H1.43333V41.5667H10.0333V17.9167C10.0333 17.5203 10.3544 17.2 10.75 17.2C14.367 17.2 17.2 14.367 17.2 10.75V3.58333C17.2 1.60748 18.8075 0 20.7833 0C24.7616 0 27.2333 2.47107 27.2333 6.45V15.05C27.2333 16.2561 28.1779 17.2 29.3833 17.2H39.4167C40.7963 17.2 41.8419 17.6128 42.4396 18.3932C43.0466 19.1859 43.1641 20.2938 42.7893 21.687Z" fill="#0B3954" stroke="#0B3954" stroke-width="0.4"></path></svg>