<svg xmlns="http://www.w3.org/2000/svg" xmlns:xlink="http://www.w3.org/1999/xlink" width="143.268" height="38.587" viewBox="0 0 143.268 38.587"><defs><clipPath id="a"><rect width="40.255" height="38.587" fill="none"/></clipPath></defs><g transform="translate(-233.403 -367.413)"><g transform="translate(336.415 367.413)"><g transform="translate(0 0)" clip-path="url(#a)"><path d="M328.693,1048.569c0,1.419-4.6,2.568-10.273,2.568a31.587,31.587,0,0,1-7.264-.752c-1.927-.482-3.009-1.135-3.009-1.816s1.082-1.334,3.009-1.816a31.594,31.594,0,0,1,7.264-.752c5.674,0,10.273,1.15,10.273,2.568" transform="translate(-298.292 -1012.551)" fill="#ccc"/><path d="M416.905,820.5c0,2.634-.878,6.378-1.962,6.378s-1.962-3.744-1.962-6.378,1.16-3.16,1.962-3.16,1.962.526,1.962,3.16" transform="translate(-399.775 -791.199)" fill="#ffbc56"/><path d="M398.37,800.22a2.223,2.223,0,0,0-1.7.786,4.407,4.407,0,0,0-.81,2.921,16.991,16.991,0,0,0,.595,4.324,7.125,7.125,0,0,0,.681,1.708,1.3,1.3,0,0,0,2.467,0,7.125,7.125,0,0,0,.681-1.708,16.99,16.99,0,0,0,.595-4.324,4.408,4.408,0,0,0-.81-2.921,2.223,2.223,0,0,0-1.7-.786m0,1.095a1.055,1.055,0,0,1,.864.4,3.4,3.4,0,0,1,.55,2.214,16.177,16.177,0,0,1-.554,4.028,6.332,6.332,0,0,1-.566,1.442.3.3,0,1,1-.588,0,6.334,6.334,0,0,1-.566-1.442,16.169,16.169,0,0,1-.554-4.028,3.4,3.4,0,0,1,.55-2.214,1.055,1.055,0,0,1,.864-.4" transform="translate(-383.202 -774.63)" fill="#1a1a1a"/><path d="M727.055,820.5c0,2.634-.878,6.378-1.962,6.378s-1.962-3.744-1.962-6.378,1.16-3.16,1.962-3.16,1.962.526,1.962,3.16" transform="translate(-700.006 -791.199)" fill="#ffbc56"/><path d="M708.523,800.22a2.223,2.223,0,0,0-1.7.786,4.408,4.408,0,0,0-.81,2.921,16.988,16.988,0,0,0,.6,4.324,7.11,7.11,0,0,0,.681,1.708,1.3,1.3,0,0,0,2.467,0,7.122,7.122,0,0,0,.681-1.708,17,17,0,0,0,.595-4.324,4.408,4.408,0,0,0-.81-2.921,2.223,2.223,0,0,0-1.7-.786m0,1.095a1.055,1.055,0,0,1,.864.4,3.4,3.4,0,0,1,.55,2.214,16.177,16.177,0,0,1-.554,4.028,6.336,6.336,0,0,1-.566,1.442.3.3,0,1,1-.588,0,6.336,6.336,0,0,1-.566-1.442,16.177,16.177,0,0,1-.554-4.028,3.4,3.4,0,0,1,.55-2.214,1.056,1.056,0,0,1,.864-.4" transform="translate(-683.437 -774.63)" fill="#1a1a1a"/><path d="M21.955,412.4c-2.281-1.317-5.084-3.949-4.542-4.888s4.223.173,6.5,1.49,2.157,2.584,1.756,3.279-1.437,1.436-3.717.119" transform="translate(-16.79 -394.144)" fill="#ffbc56"/><path d="M9.356,395.983a2.223,2.223,0,0,0,.169-1.865A4.408,4.408,0,0,0,7.4,391.957a16.985,16.985,0,0,0-4.042-1.647,7.121,7.121,0,0,0-1.82-.264,1.5,1.5,0,0,0-1.39.622A1.5,1.5,0,0,0,.3,392.181a7.126,7.126,0,0,0,1.139,1.444A17,17,0,0,0,4.891,396.3a4.409,4.409,0,0,0,2.935.759,2.223,2.223,0,0,0,1.53-1.079m-.948-.547a1.056,1.056,0,0,1-.777.549,3.4,3.4,0,0,1-2.192-.63,16.177,16.177,0,0,1-3.212-2.494,6.343,6.343,0,0,1-.966-1.211,1.131,1.131,0,0,1-.155-.429,1.133,1.133,0,0,1,.449-.08,6.341,6.341,0,0,1,1.532.23A16.176,16.176,0,0,1,6.853,392.9a3.4,3.4,0,0,1,1.642,1.583,1.055,1.055,0,0,1-.087.947" transform="translate(0 -377.571)" fill="#1a1a1a"/><path d="M975.842,409.006c2.281-1.317,5.962-2.428,6.5-1.49s-2.261,3.571-4.542,4.888-3.316.576-3.717-.119-.525-1.962,1.756-3.279" transform="translate(-942.713 -394.147)" fill="#ffbc56"/><path d="M957.139,395.987a2.223,2.223,0,0,0,1.531,1.079,4.408,4.408,0,0,0,2.935-.759,16.991,16.991,0,0,0,3.447-2.677,7.123,7.123,0,0,0,1.139-1.444,1.3,1.3,0,0,0-1.233-2.136,7.119,7.119,0,0,0-1.82.264,16.989,16.989,0,0,0-4.042,1.647,4.408,4.408,0,0,0-2.125,2.162,2.223,2.223,0,0,0,.169,1.865m.948-.547a1.056,1.056,0,0,1-.087-.948,3.4,3.4,0,0,1,1.642-1.583,16.175,16.175,0,0,1,3.766-1.534,6.342,6.342,0,0,1,1.532-.23.3.3,0,1,1,.294.509,6.331,6.331,0,0,1-.965,1.211,16.169,16.169,0,0,1-3.212,2.494,3.4,3.4,0,0,1-2.192.63,1.056,1.056,0,0,1-.777-.549" transform="translate(-926.24 -377.575)" fill="#1a1a1a"/><path d="M184.95,0a2.251,2.251,0,0,0-2.191,1.811h-.978a4.508,4.508,0,0,0-4.5,4.5v19.92a4.508,4.508,0,0,0,4.5,4.5H201.7a4.508,4.508,0,0,0,4.5-4.5V6.307a4.508,4.508,0,0,0-4.5-4.5h-.978a2.231,2.231,0,0,0-4.382,0h-9.2A2.251,2.251,0,0,0,184.95,0m0,1.752a.463.463,0,0,1,.482.482V3.561H198.05V2.232a.482.482,0,0,1,.964,0V3.561H201.7a2.721,2.721,0,0,1,2.746,2.746v19.92a2.721,2.721,0,0,1-2.746,2.746h-19.92a2.721,2.721,0,0,1-2.746-2.746V6.307a2.721,2.721,0,0,1,2.746-2.746h2.687V2.232a.463.463,0,0,1,.482-.482" transform="translate(-171.614 0.002)" fill="#1a1a1a"/><path d="M208.3,84.021h19.92a3.614,3.614,0,0,1,3.622,3.622v19.92a3.614,3.614,0,0,1-3.622,3.622H208.3a3.614,3.614,0,0,1-3.622-3.622V87.643a3.614,3.614,0,0,1,3.622-3.622" transform="translate(-198.137 -81.334)" fill="#ffbc56"/><path d="M385.834,84.029v2.263a1.577,1.577,0,0,0,3.155,0V84.029Z" transform="translate(-373.496 -81.342)" fill="#f09345"/><path d="M810.568,84.029v2.263a1.577,1.577,0,0,0,3.154,0V84.029Z" transform="translate(-784.647 -81.342)" fill="#f09345"/><path d="M206.124,763.58v1.811a2.144,2.144,0,0,0,2.18,2.18h1.811v1.442H208.3a3.614,3.614,0,0,1-3.622-3.622V763.58Z" transform="translate(-198.137 -739.162)" fill="#f09345"/><path d="M888.22,763.58v1.811a2.144,2.144,0,0,1-2.18,2.18h-1.811v1.442h1.811a3.614,3.614,0,0,0,3.622-3.622V763.58Z" transform="translate(-855.952 -739.162)" fill="#f09345"/><path d="M895.557,111.185h1.449a3.614,3.614,0,0,0,3.622-3.622V87.643a3.614,3.614,0,0,0-3.622-3.622h-1.449a3.614,3.614,0,0,1,3.622,3.622v19.92a3.614,3.614,0,0,1-3.622,3.622" transform="translate(-866.918 -81.334)" fill="#f09345"/><path d="M204.682,774.9v1.449a3.614,3.614,0,0,0,3.622,3.622h19.92a3.614,3.614,0,0,0,3.622-3.622V774.9a3.614,3.614,0,0,1-3.622,3.622H208.3a3.614,3.614,0,0,1-3.622-3.622" transform="translate(-198.137 -750.116)" fill="#f09345"/><path d="M209.753,111.185H208.3a3.614,3.614,0,0,1-3.622-3.622V87.643a3.614,3.614,0,0,1,3.622-3.622h1.449a3.614,3.614,0,0,0-3.622,3.622v19.92a3.614,3.614,0,0,0,3.622,3.622" transform="translate(-198.137 -81.334)" fill="#ffe096"/><path d="M319.75,253.912h16.3a1.807,1.807,0,0,1,1.811,1.811v14.488a1.807,1.807,0,0,1-1.811,1.811h-16.3a1.807,1.807,0,0,1-1.811-1.811V255.723a1.807,1.807,0,0,1,1.811-1.811" transform="translate(-307.772 -245.792)" fill="#fff"/><path d="M201.671,77.169a3.838,3.838,0,0,0-3.841,3.841v19.92a3.837,3.837,0,0,0,3.841,3.841h19.92a3.838,3.838,0,0,0,3.841-3.841V81.01a3.838,3.838,0,0,0-3.841-3.841Zm0,.438h19.92a3.391,3.391,0,0,1,3.4,3.4v19.92a3.391,3.391,0,0,1-3.4,3.4h-19.92a3.391,3.391,0,0,1-3.4-3.4V81.01a3.391,3.391,0,0,1,3.4-3.4" transform="translate(-191.504 -74.701)" fill="#1a1a1a"/><rect width="4.075" height="3.622" transform="translate(18.09 9.931)" fill="#d0c8c8"/><rect width="4.075" height="3.622" transform="translate(24.202 9.931)" fill="#97eff4"/><rect width="4.075" height="3.622" transform="translate(11.978 15.364)" fill="#d0c8c8"/><rect width="4.075" height="3.622" transform="translate(18.09 15.364)" fill="#d0c8c8"/><rect width="4.075" height="3.622" transform="translate(24.202 15.364)" fill="#97eff4"/><rect width="4.075" height="3.622" transform="translate(11.978 20.796)" fill="#d0c8c8"/><rect width="4.075" height="3.622" transform="translate(18.09 20.796)" fill="#d0c8c8"/><rect width="4.075" height="3.622" transform="translate(24.202 20.796)" fill="#97eff4"/><path d="M800.649,27.4a1.355,1.355,0,0,1,1.358,1.358v2.717a1.358,1.358,0,0,1-2.716,0V28.754a1.355,1.355,0,0,1,1.358-1.358" transform="translate(-773.731 -26.52)" fill="#a3a3a3"/><path d="M806.252,45.064a.541.541,0,0,1,.542.543v1.085a.543.543,0,0,1-1.085,0V45.607a.541.541,0,0,1,.543-.543" transform="translate(-779.943 -43.623)" fill="#fff"/><path d="M799.291,118.564v1.159a1.358,1.358,0,1,0,2.716,0v-1.159a1.358,1.358,0,1,1-2.716,0" transform="translate(-773.731 -114.772)" fill="#838383"/><path d="M792.443,84.021v2.264a1.577,1.577,0,0,0,3.154,0V84.021h-.438v2.264a1.139,1.139,0,0,1-2.278,0V84.021Z" transform="translate(-767.102 -81.334)" fill="#616161"/><path d="M375.926,27.4a1.355,1.355,0,0,1,1.358,1.358v2.717a1.358,1.358,0,0,1-2.716,0V28.754a1.355,1.355,0,0,1,1.358-1.358" transform="translate(-362.59 -26.52)" fill="#a3a3a3"/><path d="M381.529,45.064a.541.541,0,0,1,.543.543v1.085a.543.543,0,0,1-1.085,0V45.607a.541.541,0,0,1,.543-.543" transform="translate(-368.802 -43.623)" fill="#fff"/><path d="M374.568,118.564v1.159a1.358,1.358,0,1,0,2.716,0v-1.159a1.358,1.358,0,1,1-2.716,0" transform="translate(-362.59 -114.772)" fill="#838383"/><path d="M367.717,84.021v2.264a1.577,1.577,0,0,0,3.154,0V84.021h-.438v2.264a1.139,1.139,0,0,1-2.278,0V84.021Z" transform="translate(-355.958 -81.334)" fill="#616161"/><path d="M321.108,20.544a1.579,1.579,0,0,0-1.577,1.577v.234h-1.592v.438h2.03v-.672a1.139,1.139,0,0,1,2.278,0v.672h11.3v-.672a1.139,1.139,0,0,1,2.278,0v.672h2.03v-.438h-1.592v-.234a1.577,1.577,0,0,0-3.155,0v.234H322.685v-.234a1.579,1.579,0,0,0-1.577-1.577" transform="translate(-307.772 -19.887)" fill="#1a1a1a"/><path d="M912.948,94.058h-.021l-.017,0-.016,0-.016,0-.014,0h0l0,0-.021.007-.015.006-.015.007-.014.008-.014.008-.014.009-.013.01-.013.01-.012.011-.012.012-.011.012-.01.013-.01.013-.009.014-.008.014-.008.015-.007.015-.006.015-.005.015,0,.016,0,.016,0,.016c0,.005,0,.011,0,.016l0,.017q0,.008,0,.016v.006c0,.005,0,.011,0,.016v.005l0,.016c0,.005,0,.011,0,.016l0,.016,0,.015v0l0,0,.007.021.006.015.007.015.008.014.008.014.009.014.009.013.01.013.011.012.011.012.012.011.013.01.013.01.014.009.014.009.014.008.015.007.015.006.016.006.016,0,.016,0,.016,0,.016,0,.016,0h.044l.017,0,.016,0,.016,0,.015,0h0l0,0,.022-.007.015-.006.015-.007.015-.008.014-.008.014-.009.013-.01.013-.01.012-.011.012-.012.011-.012.01-.013.01-.013.009-.014.009-.014.008-.015.007-.015.006-.015.006-.015,0-.016,0-.016,0-.016c0-.005,0-.011,0-.016s0-.011,0-.017,0-.011,0-.016,0,0,0-.006,0-.011,0-.017,0,0,0,0,0-.011,0-.017,0-.011,0-.016l0-.016,0-.015v0l0,0-.007-.021-.006-.015-.007-.015-.008-.014-.008-.014-.009-.014-.01-.013-.01-.013-.011-.012-.012-.012-.012-.011-.013-.01-.013-.01-.014-.009-.014-.009-.015-.008-.015-.007-.015-.006-.015-.006-.016,0-.016,0-.016,0-.016,0-.016,0h-.023Z" transform="translate(-883.435 -91.05)" fill="#ffbc56"/><path d="M912.948,94.057h-.021l-.017,0-.016,0-.016,0-.014,0h0l0,0-.021.007-.015.006-.015.007-.014.008-.014.008-.014.009-.013.01-.013.01-.012.011-.012.012-.011.012-.01.013-.01.013-.009.014-.008.014-.008.015-.007.015-.006.015-.005.015,0,.016,0,.016,0,.016c0,.005,0,.011,0,.016l0,.016q0,.008,0,.016v.006c0,.005,0,.011,0,.016v.005l0,.016c0,.005,0,.011,0,.017l0,.016,0,.014v0l0,0,.007.021.006.015.007.015.008.014.008.014.009.014.009.013.01.013.011.012.011.012.012.011.013.01.013.01.014.009.014.009.014.008.015.007.015.006.016.006.016,0,.016,0,.016,0,.016,0,.016,0h.044l.017,0,.016,0,.016,0,.015,0h0l0,0,.022-.007.015-.006.015-.007.015-.008.014-.008.014-.009.013-.01.013-.01.012-.011.012-.012.011-.012.01-.013.01-.013.009-.014.009-.014.008-.015.007-.015.006-.015.006-.016,0-.015,0-.016,0-.016c0-.005,0-.011,0-.016s0-.011,0-.016,0-.011,0-.016,0,0,0-.006,0-.011,0-.017,0,0,0-.005,0-.011,0-.017,0-.011,0-.016l0-.016,0-.014v0l0,0-.007-.021-.006-.015-.007-.015-.008-.014-.008-.014-.009-.014-.01-.013-.01-.013-.011-.012-.012-.012-.012-.011-.013-.01-.013-.01-.014-.009-.014-.008-.015-.008-.015-.007-.015-.006-.015-.006-.016,0-.016,0-.016,0-.016,0-.016,0h-.023Z" transform="translate(-883.435 -91.049)" fill="#ffbc56"/><path d="M912.948,94.057h-.021l-.017,0-.016,0-.016,0-.014,0h0l0,0-.021.007-.015.006-.015.007-.014.008-.014.008-.014.009-.013.01-.013.01-.012.011-.012.012-.011.012-.01.013-.01.013-.009.014-.008.014-.008.015-.007.015-.006.015-.005.015,0,.016,0,.016,0,.016c0,.005,0,.011,0,.016l0,.016q0,.008,0,.016v.006c0,.005,0,.011,0,.016v.005l0,.016c0,.005,0,.011,0,.017l0,.016,0,.014v0l0,0,.007.021.006.015.007.015.008.014.008.014.009.014.009.013.01.013.011.012.011.012.012.011.013.01.013.01.014.009.014.009.014.008.015.007.015.006.016.006.016,0,.016,0,.016,0,.016,0,.016,0h.044l.017,0,.016,0,.016,0,.015,0h0l0,0,.022-.007.015-.006.015-.007.015-.008.014-.008.014-.009.013-.01.013-.01.012-.011.012-.012.011-.012.01-.013.01-.013.009-.014.009-.014.008-.015.007-.015.006-.015.006-.016,0-.015,0-.016,0-.016c0-.005,0-.011,0-.016s0-.011,0-.016,0-.011,0-.016,0,0,0-.006,0-.011,0-.017,0,0,0-.005,0-.011,0-.017,0-.011,0-.016l0-.016,0-.014v0l0,0-.007-.021-.006-.015-.007-.015-.008-.014-.008-.014-.009-.014-.01-.013-.01-.013-.011-.012-.012-.012-.012-.011-.013-.01-.013-.01-.014-.009-.014-.008-.015-.008-.015-.007-.015-.006-.015-.006-.016,0-.016,0-.016,0-.016,0-.016,0h-.023Z" transform="translate(-883.435 -91.049)" fill="#ffbc56"/><path d="M912.948,94.057h-.021l-.017,0-.016,0-.016,0-.014,0h0l0,0-.021.007-.015.006-.015.007-.014.008-.014.008-.014.009-.013.01-.013.01-.012.011-.012.012-.011.012-.01.013-.01.013-.009.014-.008.014-.008.015-.007.015-.006.015-.005.015,0,.016,0,.016,0,.016c0,.005,0,.011,0,.016l0,.016q0,.008,0,.016v.006c0,.005,0,.011,0,.016v.005l0,.016c0,.005,0,.011,0,.017l0,.016,0,.014v0l0,0,.007.021.006.015.007.015.008.014.008.014.009.014.009.013.01.013.011.012.011.012.012.011.013.01.013.01.014.009.014.009.014.008.015.007.015.006.016.006.016,0,.016,0,.016,0,.016,0,.016,0h.044l.017,0,.016,0,.016,0,.015,0h0l0,0,.022-.007.015-.006.015-.007.015-.008.014-.008.014-.009.013-.01.013-.01.012-.011.012-.012.011-.012.01-.013.01-.013.009-.014.009-.014.008-.015.007-.015.006-.015.006-.016,0-.015,0-.016,0-.016c0-.005,0-.011,0-.016s0-.011,0-.016,0-.011,0-.016,0,0,0-.006,0-.011,0-.017,0,0,0-.005,0-.011,0-.017,0-.011,0-.016l0-.016,0-.014v0l0,0-.007-.021-.006-.015-.007-.015-.008-.014-.008-.014-.009-.014-.01-.013-.01-.013-.011-.012-.012-.012-.012-.011-.013-.01-.013-.01-.014-.009-.014-.008-.015-.008-.015-.007-.015-.006-.015-.006-.016,0-.016,0-.016,0-.016,0-.016,0h-.023Z" transform="translate(-883.435 -91.049)" fill="#ffbc56"/><path d="M912.948,94.057h-.021l-.017,0-.016,0-.016,0-.014,0h0l0,0-.021.007-.015.006-.015.007-.014.008-.014.008-.014.009-.013.01-.013.01-.012.011-.012.012-.011.012-.01.013-.01.013-.009.014-.008.014-.008.015-.007.015-.006.015-.005.015,0,.016,0,.016,0,.016c0,.005,0,.011,0,.016l0,.016q0,.008,0,.016v.006c0,.005,0,.011,0,.016v.005l0,.016c0,.005,0,.011,0,.017l0,.016,0,.014v0l0,0,.007.021.006.015.007.015.008.014.008.014.009.014.009.013.01.013.011.012.011.012.012.011.013.01.013.01.014.009.014.009.014.008.015.007.015.006.016.006.016,0,.016,0,.016,0,.016,0,.016,0h.044l.017,0,.016,0,.016,0,.015,0h0l0,0,.022-.007.015-.006.015-.007.015-.008.014-.008.014-.009.013-.01.013-.01.012-.011.012-.012.011-.012.01-.013.01-.013.009-.014.009-.014.008-.015.007-.015.006-.015.006-.016,0-.015,0-.016,0-.016c0-.005,0-.011,0-.016s0-.011,0-.016,0-.011,0-.016,0,0,0-.006,0-.011,0-.017,0,0,0-.005,0-.011,0-.017,0-.011,0-.016l0-.016,0-.014v0l0,0-.007-.021-.006-.015-.007-.015-.008-.014-.008-.014-.009-.014-.01-.013-.01-.013-.011-.012-.012-.012-.012-.011-.013-.01-.013-.01-.014-.009-.014-.008-.015-.008-.015-.007-.015-.006-.015-.006-.016,0-.016,0-.016,0-.016,0-.016,0h-.023Z" transform="translate(-883.435 -91.049)" fill="#ffbc56"/><path d="M912.948,94.057h-.021l-.017,0-.016,0-.016,0-.014,0h0l0,0-.021.007-.015.006-.015.007-.014.008-.014.008-.014.009-.013.01-.013.01-.012.011-.012.012-.011.012-.01.013-.01.013-.009.014-.008.014-.008.015-.007.015-.006.015-.005.015,0,.016,0,.016,0,.016c0,.005,0,.011,0,.016l0,.016q0,.008,0,.016v.006c0,.005,0,.011,0,.016v.005l0,.016c0,.005,0,.011,0,.017l0,.016,0,.014v0l0,0,.007.021.006.015.007.015.008.014.008.014.009.014.009.013.01.013.011.012.011.012.012.011.013.01.013.01.014.009.014.009.014.008.015.007.015.006.016.006.016,0,.016,0,.016,0,.016,0,.016,0h.044l.017,0,.016,0,.016,0,.015,0h0l0,0,.022-.007.015-.006.015-.007.015-.008.014-.008.014-.009.013-.01.013-.01.012-.011.012-.012.011-.012.01-.013.01-.013.009-.014.009-.014.008-.015.007-.015.006-.015.006-.016,0-.015,0-.016,0-.016c0-.005,0-.011,0-.016s0-.011,0-.016,0-.011,0-.016,0,0,0-.006,0-.011,0-.017,0,0,0-.005,0-.011,0-.017,0-.011,0-.016l0-.016,0-.014v0l0,0-.007-.021-.006-.015-.007-.015-.008-.014-.008-.014-.009-.014-.01-.013-.01-.013-.011-.012-.012-.012-.012-.011-.013-.01-.013-.01-.014-.009-.014-.008-.015-.008-.015-.007-.015-.006-.015-.006-.016,0-.016,0-.016,0-.016,0-.016,0h-.023Z" transform="translate(-883.435 -91.049)" fill="#ffbc56"/><path d="M912.948,94.057h-.021l-.017,0-.016,0-.016,0-.014,0h0l0,0-.021.007-.015.006-.015.007-.014.008-.014.008-.014.009-.013.01-.013.01-.012.011-.012.012-.011.012-.01.013-.01.013-.009.014-.008.014-.008.015-.007.015-.006.015-.005.015,0,.016,0,.016,0,.016c0,.005,0,.011,0,.016l0,.016q0,.008,0,.016v.006c0,.005,0,.011,0,.016v.005l0,.016c0,.005,0,.011,0,.017l0,.016,0,.014v0l0,0,.007.021.006.015.007.015.008.014.008.014.009.014.009.013.01.013.011.012.011.012.012.011.013.01.013.01.014.009.014.009.014.008.015.007.015.006.016.006.016,0,.016,0,.016,0,.016,0,.016,0h.044l.017,0,.016,0,.016,0,.015,0h0l0,0,.022-.007.015-.006.015-.007.015-.008.014-.008.014-.009.013-.01.013-.01.012-.011.012-.012.011-.012.01-.013.01-.013.009-.014.009-.014.008-.015.007-.015.006-.015.006-.016,0-.015,0-.016,0-.016c0-.005,0-.011,0-.016s0-.011,0-.016,0-.011,0-.016,0,0,0-.006,0-.011,0-.017,0,0,0-.005,0-.011,0-.017,0-.011,0-.016l0-.016,0-.014v0l0,0-.007-.021-.006-.015-.007-.015-.008-.014-.008-.014-.009-.014-.01-.013-.01-.013-.011-.012-.012-.012-.012-.011-.013-.01-.013-.01-.014-.009-.014-.008-.015-.008-.015-.007-.015-.006-.015-.006-.016,0-.016,0-.016,0-.016,0-.016,0h-.023Z" transform="translate(-883.435 -91.049)" fill="#ffbc56"/><path d="M912.948,94.057h-.021l-.017,0-.016,0-.016,0-.014,0h0l0,0-.021.007-.015.006-.015.007-.014.008-.014.008-.014.009-.013.01-.013.01-.012.011-.012.012-.011.012-.01.013-.01.013-.009.014-.008.014-.008.015-.007.015-.006.015-.005.015,0,.016,0,.016,0,.016c0,.005,0,.011,0,.016l0,.016q0,.008,0,.016v.006c0,.005,0,.011,0,.016v.005l0,.016c0,.005,0,.011,0,.017l0,.016,0,.014v0l0,0,.007.021.006.015.007.015.008.014.008.014.009.014.009.013.01.013.011.012.011.012.012.011.013.01.013.01.014.009.014.009.014.008.015.007.015.006.016.006.016,0,.016,0,.016,0,.016,0,.016,0h.044l.017,0,.016,0,.016,0,.015,0h0l0,0,.022-.007.015-.006.015-.007.015-.008.014-.008.014-.009.013-.01.013-.01.012-.011.012-.012.011-.012.01-.013.01-.013.009-.014.009-.014.008-.015.007-.015.006-.015.006-.016,0-.015,0-.016,0-.016c0-.005,0-.011,0-.016s0-.011,0-.016,0-.011,0-.016,0,0,0-.006,0-.011,0-.017,0,0,0-.005,0-.011,0-.017,0-.011,0-.016l0-.016,0-.014v0l0,0-.007-.021-.006-.015-.007-.015-.008-.014-.008-.014-.009-.014-.01-.013-.01-.013-.011-.012-.012-.012-.012-.011-.013-.01-.013-.01-.014-.009-.014-.008-.015-.008-.015-.007-.015-.006-.015-.006-.016,0-.016,0-.016,0-.016,0-.016,0h-.023Z" transform="translate(-883.435 -91.049)" fill="#ffbc56"/><path d="M912.948,94.057h-.021l-.017,0-.016,0-.016,0-.014,0h0l0,0-.021.007-.015.006-.015.007-.014.008-.014.008-.014.009-.013.01-.013.01-.012.011-.012.012-.011.012-.01.013-.01.013-.009.014-.008.014-.008.015-.007.015-.006.015-.005.015,0,.016,0,.016,0,.016c0,.005,0,.011,0,.016l0,.016q0,.008,0,.016v.006c0,.005,0,.011,0,.016v.005l0,.016c0,.005,0,.011,0,.017l0,.016,0,.014v0l0,0,.007.021.006.015.007.015.008.014.008.014.009.014.009.013.01.013.011.012.011.012.012.011.013.01.013.01.014.009.014.009.014.008.015.007.015.006.016.006.016,0,.016,0,.016,0,.016,0,.016,0h.044l.017,0,.016,0,.016,0,.015,0h0l0,0,.022-.007.015-.006.015-.007.015-.008.014-.008.014-.009.013-.01.013-.01.012-.011.012-.012.011-.012.01-.013.01-.013.009-.014.009-.014.008-.015.007-.015.006-.015.006-.016,0-.015,0-.016,0-.016c0-.005,0-.011,0-.016s0-.011,0-.016,0-.011,0-.016,0,0,0-.006,0-.011,0-.017,0,0,0-.005,0-.011,0-.017,0-.011,0-.016l0-.016,0-.014v0l0,0-.007-.021-.006-.015-.007-.015-.008-.014-.008-.014-.009-.014-.01-.013-.01-.013-.011-.012-.012-.012-.012-.011-.013-.01-.013-.01-.014-.009-.014-.008-.015-.008-.015-.007-.015-.006-.015-.006-.016,0-.016,0-.016,0-.016,0-.016,0h-.023Z" transform="translate(-883.435 -91.049)" fill="#ffbc56"/><path d="M912.948,94.057h-.021l-.017,0-.016,0-.016,0-.014,0h0l0,0-.021.007-.015.006-.015.007-.014.008-.014.008-.014.009-.013.01-.013.01-.012.011-.012.012-.011.012-.01.013-.01.013-.009.014-.008.014-.008.015-.007.015-.006.015-.005.015,0,.016,0,.016,0,.016c0,.005,0,.011,0,.016l0,.016q0,.008,0,.016v.006c0,.005,0,.011,0,.016v.005l0,.016c0,.005,0,.011,0,.017l0,.016,0,.014v0l0,0,.007.021.006.015.007.015.008.014.008.014.009.014.009.013.01.013.011.012.011.012.012.011.013.01.013.01.014.009.014.009.014.008.015.007.015.006.016.006.016,0,.016,0,.016,0,.016,0,.016,0h.044l.017,0,.016,0,.016,0,.015,0h0l0,0,.022-.007.015-.006.015-.007.015-.008.014-.008.014-.009.013-.01.013-.01.012-.011.012-.012.011-.012.01-.013.01-.013.009-.014.009-.014.008-.015.007-.015.006-.015.006-.016,0-.015,0-.016,0-.016c0-.005,0-.011,0-.016s0-.011,0-.016,0-.011,0-.016,0,0,0-.006,0-.011,0-.017,0,0,0-.005,0-.011,0-.017,0-.011,0-.016l0-.016,0-.014v0l0,0-.007-.021-.006-.015-.007-.015-.008-.014-.008-.014-.009-.014-.01-.013-.01-.013-.011-.012-.012-.012-.012-.011-.013-.01-.013-.01-.014-.009-.014-.008-.015-.008-.015-.007-.015-.006-.015-.006-.016,0-.016,0-.016,0-.016,0-.016,0h-.023Z" transform="translate(-883.435 -91.049)" fill="#ffbc56"/><path d="M912.948,94.057h-.021l-.017,0-.016,0-.016,0-.014,0h0l0,0-.021.007-.015.006-.015.007-.014.008-.014.008-.014.009-.013.01-.013.01-.012.011-.012.012-.011.012-.01.013-.01.013-.009.013-.008.014-.008.015-.007.015-.006.015-.005.015,0,.016,0,.016,0,.016c0,.005,0,.011,0,.016l0,.016q0,.008,0,.016v.006c0,.005,0,.011,0,.016v.005l0,.016c0,.005,0,.011,0,.016l0,.016,0,.015v0l0,0,.007.021.006.015.007.015.008.014.008.014.009.014.009.013.01.013.011.012.011.012.012.011.013.01.013.01.014.009.014.009.014.008.015.007.015.006.016.006.016,0,.016,0,.016,0,.016,0,.016,0h.044l.017,0,.016,0,.016,0,.015,0h0l0,0,.022-.007.015-.006.015-.007.015-.008.014-.008.014-.009.013-.01.013-.01.012-.011.012-.012.011-.012.01-.013.01-.013.009-.014.009-.014.008-.015.007-.015.006-.015.006-.015,0-.016,0-.016,0-.016c0-.005,0-.011,0-.016s0-.011,0-.017,0-.011,0-.016,0,0,0-.006,0-.011,0-.016,0,0,0,0,0-.011,0-.017,0-.011,0-.016l0-.016,0-.015v0l0,0-.007-.021-.006-.015-.007-.015-.008-.014-.008-.014-.009-.014-.01-.013-.01-.013-.011-.012-.012-.012-.012-.011-.013-.01-.013-.01-.014-.009-.014-.009-.015-.008-.015-.007-.015-.006-.015-.006-.016,0-.016,0-.016,0-.016,0-.016,0h-.023Z" transform="translate(-883.435 -91.049)" fill="#ffbc56"/><path d="M912.948,94.057h-.021l-.017,0-.016,0-.016,0-.014,0h0l0,0-.021.007-.015.006-.015.007-.014.008-.014.008-.014.009-.013.01-.013.01-.012.011-.012.012-.011.012-.01.013-.01.013-.009.013-.008.014-.008.015-.007.015-.006.015-.005.015,0,.016,0,.016,0,.016c0,.005,0,.011,0,.016l0,.016q0,.008,0,.016v.006c0,.005,0,.011,0,.016v.005l0,.016c0,.005,0,.011,0,.017l0,.016,0,.014v0l0,0,.007.021.006.015.007.015.008.014.008.014.009.014.009.013.01.013.011.012.011.012.012.011.013.01.013.01.014.009.014.009.014.008.015.007.015.006.016.006.016,0,.016,0,.016,0,.016,0,.016,0h.044l.017,0,.016,0,.016,0,.015,0h0l0,0,.022-.007.015-.006.015-.007.015-.008.014-.008.014-.009.013-.01.013-.01.012-.011.012-.012.011-.012.01-.013.01-.013.009-.013.009-.014.008-.015.007-.015.006-.015.006-.016,0-.015,0-.016,0-.016c0-.005,0-.011,0-.016s0-.011,0-.016,0-.011,0-.016,0,0,0-.006,0-.011,0-.017,0,0,0-.005,0-.011,0-.017,0-.011,0-.016l0-.016,0-.014v0l0,0-.007-.021-.006-.015-.007-.015-.008-.014-.008-.014-.009-.014-.01-.013-.01-.013-.011-.012-.012-.012-.012-.011-.013-.01-.013-.01-.014-.009-.014-.008-.015-.008-.015-.007-.015-.006-.015-.006-.016,0-.016,0-.016,0-.016,0-.016,0h-.023Z" transform="translate(-883.435 -91.049)" fill="#ffbc56"/><path d="M912.948,94.057h-.021l-.017,0-.016,0-.016,0-.014,0h0l0,0-.021.007-.015.006-.015.007-.014.008-.014.008-.014.009-.013.01-.013.01-.012.011-.012.012-.011.012-.01.013-.01.013-.009.013-.008.014-.008.015-.007.015-.006.015-.005.015,0,.016,0,.016,0,.016c0,.005,0,.011,0,.016l0,.016q0,.008,0,.016v.006c0,.005,0,.011,0,.016v.005l0,.016c0,.005,0,.011,0,.017l0,.016,0,.014v0l0,0,.007.021.006.015.007.015.008.014.008.014.009.014.009.013.01.013.011.012.011.012.012.011.013.01.013.01.014.009.014.009.014.008.015.007.015.006.016.006.016,0,.016,0,.016,0,.016,0,.016,0h.044l.017,0,.016,0,.016,0,.015,0h0l0,0,.022-.007.015-.006.015-.007.015-.008.014-.008.014-.009.013-.01.013-.01.012-.011.012-.012.011-.012.01-.013.01-.013.009-.013.009-.014.008-.015.007-.015.006-.015.006-.016,0-.015,0-.016,0-.016c0-.005,0-.011,0-.016s0-.011,0-.016,0-.011,0-.016,0,0,0-.006,0-.011,0-.017,0,0,0-.005,0-.011,0-.017,0-.011,0-.016l0-.016,0-.014v0l0,0-.007-.021-.006-.015-.007-.015-.008-.014-.008-.014-.009-.014-.01-.013-.01-.013-.011-.012-.012-.012-.012-.011-.013-.01-.013-.01-.014-.009-.014-.008-.015-.008-.015-.007-.015-.006-.015-.006-.016,0-.016,0-.016,0-.016,0-.016,0h-.023Z" transform="translate(-883.435 -91.049)" fill="#ffbc56"/><path d="M912.948,94.057h-.021l-.017,0-.016,0-.016,0-.014,0h0l0,0-.021.007-.015.006-.015.007-.014.008-.014.008-.014.009-.013.01-.013.01-.012.011-.012.012-.011.012-.01.013-.01.013-.009.013-.008.014-.008.015-.007.015-.006.015-.005.015,0,.016,0,.016,0,.016c0,.005,0,.011,0,.016l0,.016q0,.008,0,.016v.006c0,.005,0,.011,0,.016v.005l0,.016c0,.005,0,.011,0,.017l0,.016,0,.014v0l0,0,.007.021.006.015.007.015.008.014.008.014.009.014.009.013.01.013.011.012.011.012.012.011.013.01.013.01.014.009.014.009.014.008.015.007.015.006.016.006.016,0,.016,0,.016,0,.016,0,.016,0h.044l.017,0,.016,0,.016,0,.015,0h0l0,0,.022-.007.015-.006.015-.007.015-.008.014-.008.014-.009.013-.01.013-.01.012-.011.012-.012.011-.012.01-.013.01-.013.009-.013.009-.014.008-.015.007-.015.006-.015.006-.016,0-.015,0-.016,0-.016c0-.005,0-.011,0-.016s0-.011,0-.016,0-.011,0-.016,0,0,0-.006,0-.011,0-.017,0,0,0-.005,0-.011,0-.017,0-.011,0-.016l0-.016,0-.014v0l0,0-.007-.021-.006-.015-.007-.015-.008-.014-.008-.014-.009-.014-.01-.013-.01-.013-.011-.012-.012-.012-.012-.011-.013-.01-.013-.01-.014-.009-.014-.008-.015-.008-.015-.007-.015-.006-.015-.006-.016,0-.016,0-.016,0-.016,0-.016,0h-.023Z" transform="translate(-883.435 -91.049)" fill="#ffbc56"/><path d="M912.948,94.057h-.021l-.017,0-.016,0-.016,0-.014,0h0l0,0-.021.007-.015.006-.015.007-.014.008-.014.008-.014.009-.013.01-.013.01-.012.011-.012.012-.011.012-.01.013-.01.013-.009.013-.008.014-.008.015-.007.015-.006.015-.005.015,0,.016,0,.016,0,.016c0,.005,0,.011,0,.016l0,.016q0,.008,0,.016v.006c0,.005,0,.011,0,.016v.005l0,.016c0,.005,0,.011,0,.017l0,.016,0,.014v0l0,0,.007.021.006.015.007.015.008.014.008.014.009.014.009.013.01.013.011.012.011.012.012.011.013.01.013.01.014.009.014.009.014.008.015.007.015.006.016.006.016,0,.016,0,.016,0,.016,0,.016,0h.044l.017,0,.016,0,.016,0,.015,0h0l0,0,.022-.007.015-.006.015-.007.015-.008.014-.008.014-.009.013-.01.013-.01.012-.011.012-.012.011-.012.01-.013.01-.013.009-.013.009-.014.008-.015.007-.015.006-.015.006-.016,0-.015,0-.016,0-.016c0-.005,0-.011,0-.016s0-.011,0-.016,0-.011,0-.016,0,0,0-.006,0-.011,0-.017,0,0,0-.005,0-.011,0-.017,0-.011,0-.016l0-.016,0-.014v0l0,0-.007-.021-.006-.015-.007-.015-.008-.014-.008-.014-.009-.014-.01-.013-.01-.013-.011-.012-.012-.012-.012-.011-.013-.01-.013-.01-.014-.009-.014-.008-.015-.008-.015-.007-.015-.006-.015-.006-.016,0-.016,0-.016,0-.016,0-.016,0h-.023Z" transform="translate(-883.435 -91.049)" fill="#ffbc56"/><path d="M912.948,94.057h-.021l-.017,0-.016,0-.016,0-.014,0h0l0,0-.021.007-.015.006-.015.007-.014.008-.014.008-.014.009-.013.01-.013.01-.012.011-.012.012-.011.012-.01.013-.01.013-.009.013-.008.014-.008.015-.007.015-.006.015-.005.015,0,.016,0,.016,0,.016c0,.005,0,.011,0,.016l0,.016q0,.008,0,.016v.006c0,.005,0,.011,0,.016v.005l0,.016c0,.005,0,.011,0,.017l0,.016,0,.014v0l0,0,.007.021.006.015.007.015.008.014.008.014.009.014.009.013.01.013.011.012.011.012.012.011.013.01.013.01.014.009.014.009.014.008.015.007.015.006.016.006.016,0,.016,0,.016,0,.016,0,.016,0h.044l.017,0,.016,0,.016,0,.015,0h0l0,0,.022-.007.015-.006.015-.007.015-.008.014-.008.014-.009.013-.01.013-.01.012-.011.012-.012.011-.012.01-.013.01-.013.009-.013.009-.014.008-.015.007-.015.006-.015.006-.016,0-.015,0-.016,0-.016c0-.005,0-.011,0-.016s0-.011,0-.016,0-.011,0-.016,0,0,0-.006,0-.011,0-.017,0,0,0-.005,0-.011,0-.017,0-.011,0-.016l0-.016,0-.014v0l0,0-.007-.021-.006-.015-.007-.015-.008-.014-.008-.014-.009-.014-.01-.013-.01-.013-.011-.012-.012-.012-.012-.011-.013-.01-.013-.01-.014-.009-.014-.008-.015-.008-.015-.007-.015-.006-.015-.006-.016,0-.016,0-.016,0-.016,0-.016,0h-.023Z" transform="translate(-883.435 -91.049)" fill="#ffbc56"/><path d="M912.948,94.057h-.021l-.017,0-.016,0-.016,0-.014,0h0l0,0-.021.007-.015.006-.015.007-.014.008-.014.008-.014.009-.013.01-.013.01-.012.011-.012.012-.011.012-.01.013-.01.013-.009.013-.008.014-.008.015-.007.015-.006.015-.005.015,0,.016,0,.016,0,.016c0,.005,0,.011,0,.016l0,.016q0,.008,0,.016v.006c0,.005,0,.011,0,.016v.005l0,.016c0,.005,0,.011,0,.017l0,.016,0,.014v0l0,0,.007.021.006.015.007.015.008.014.008.014.009.014.009.013.01.013.011.012.011.012.012.011.013.01.013.01.014.009.014.009.014.008.015.007.015.006.016.006.016,0,.016,0,.016,0,.016,0,.016,0h.044l.017,0,.016,0,.016,0,.015,0h0l0,0,.022-.007.015-.006.015-.007.015-.008.014-.008.014-.009.013-.01.013-.01.012-.011.012-.012.011-.012.01-.013.01-.013.009-.013.009-.014.008-.015.007-.015.006-.015.006-.016,0-.015,0-.016,0-.016c0-.005,0-.011,0-.016s0-.011,0-.016,0-.011,0-.016,0,0,0-.006,0-.011,0-.017,0,0,0-.005,0-.011,0-.017,0-.011,0-.016l0-.016,0-.014v0l0,0-.007-.021-.006-.015-.007-.015-.008-.014-.008-.014-.009-.014-.01-.013-.01-.013-.011-.012-.012-.012-.012-.011-.013-.01-.013-.01-.014-.009-.014-.008-.015-.008-.015-.007-.015-.006-.015-.006-.016,0-.016,0-.016,0-.016,0-.016,0h-.023Z" transform="translate(-883.435 -91.049)" fill="#ffbc56"/><path d="M912.948,94.057h-.021l-.017,0-.016,0-.016,0-.014,0h0l0,0-.021.007-.015.006-.015.007-.014.008-.014.008-.014.009-.013.01-.013.01-.012.011-.012.012-.011.012-.01.013-.01.013-.009.013-.008.014-.008.015-.007.015-.006.015-.005.015,0,.016,0,.016,0,.016c0,.005,0,.011,0,.016l0,.016q0,.008,0,.016v.006c0,.005,0,.011,0,.016v.005l0,.016c0,.005,0,.011,0,.017l0,.016,0,.014v0l0,0,.007.021.006.015.007.015.008.014.008.014.009.014.009.013.01.013.011.012.011.012.012.011.013.01.013.01.014.009.014.009.014.008.015.007.015.006.016.006.016,0,.016,0,.016,0,.016,0,.016,0h.044l.017,0,.016,0,.016,0,.015,0h0l0,0,.022-.007.015-.006.015-.007.015-.008.014-.008.014-.009.013-.01.013-.01.012-.011.012-.012.011-.012.01-.013.01-.013.009-.013.009-.014.008-.015.007-.015.006-.015.006-.016,0-.015,0-.016,0-.016c0-.005,0-.011,0-.016s0-.011,0-.016,0-.011,0-.016,0,0,0-.006,0-.011,0-.017,0,0,0-.005,0-.011,0-.017,0-.011,0-.016l0-.016,0-.014v0l0,0-.007-.021-.006-.015-.007-.015-.008-.014-.008-.014-.009-.014-.01-.013-.01-.013-.011-.012-.012-.012-.012-.011-.013-.01-.013-.01-.014-.009-.014-.008-.015-.008-.015-.007-.015-.006-.015-.006-.016,0-.016,0-.016,0-.016,0-.016,0h-.023Z" transform="translate(-883.435 -91.049)" fill="#ffbc56"/><path d="M912.948,94.057h-.021l-.017,0-.016,0-.016,0-.014,0h0l0,0-.021.007-.015.006-.015.007-.014.008-.014.008-.014.009-.013.01-.013.01-.012.011-.012.012-.011.012-.01.013-.01.013-.009.013-.008.014-.008.015-.007.015-.006.015-.005.015,0,.016,0,.016,0,.016c0,.005,0,.011,0,.016l0,.016q0,.008,0,.016v.006c0,.005,0,.011,0,.016v.005l0,.016c0,.005,0,.011,0,.017l0,.016,0,.014v0l0,0,.007.021.006.015.007.015.008.014.008.014.009.014.009.013.01.013.011.012.011.012.012.011.013.01.013.01.014.009.014.009.014.008.015.007.015.006.016.006.016,0,.016,0,.016,0,.016,0,.016,0h.044l.017,0,.016,0,.016,0,.015,0h0l0,0,.022-.007.015-.006.015-.007.015-.008.014-.008.014-.009.013-.01.013-.01.012-.011.012-.012.011-.012.01-.013.01-.013.009-.013.009-.014.008-.015.007-.015.006-.015.006-.016,0-.015,0-.016,0-.016c0-.005,0-.011,0-.016s0-.011,0-.016,0-.011,0-.016,0,0,0-.006,0-.011,0-.017,0,0,0-.005,0-.011,0-.017,0-.011,0-.016l0-.016,0-.014v0l0,0-.007-.021-.006-.015-.007-.015-.008-.014-.008-.014-.009-.014-.01-.013-.01-.013-.011-.012-.012-.012-.012-.011-.013-.01-.013-.01-.014-.009-.014-.008-.015-.008-.015-.007-.015-.006-.015-.006-.016,0-.016,0-.016,0-.016,0-.016,0h-.023Z" transform="translate(-883.435 -91.049)" fill="#ffbc56"/><path d="M912.948,94.057h-.021l-.017,0-.016,0-.016,0-.014,0h0l0,0-.021.007-.015.006-.015.007-.014.008-.014.008-.014.009-.013.01-.013.01-.012.011-.012.012-.011.012-.01.013-.01.013-.009.013-.008.014-.008.015-.007.015-.006.015-.005.015,0,.016,0,.016,0,.016c0,.005,0,.011,0,.016l0,.016q0,.008,0,.016v.006c0,.005,0,.011,0,.016v.005l0,.016c0,.005,0,.011,0,.017l0,.016,0,.014v0l0,0,.007.021.006.015.007.015.008.014.008.014.009.014.009.013.01.013.011.012.011.012.012.011.013.01.013.01.014.009.014.009.014.008.015.007.015.006.016.006.016,0,.016,0,.016,0,.016,0,.016,0h.044l.017,0,.016,0,.016,0,.015,0h0l0,0,.022-.007.015-.006.015-.007.015-.008.014-.008.014-.009.013-.01.013-.01.012-.011.012-.012.011-.012.01-.013.01-.013.009-.013.009-.014.008-.015.007-.015.006-.015.006-.016,0-.015,0-.016,0-.016c0-.005,0-.011,0-.016s0-.011,0-.016,0-.011,0-.016,0,0,0-.006,0-.011,0-.017,0,0,0-.005,0-.011,0-.017,0-.011,0-.016l0-.016,0-.014v0l0,0-.007-.021-.006-.015-.007-.015-.008-.014-.008-.014-.009-.014-.01-.013-.01-.013-.011-.012-.012-.012-.012-.011-.013-.01-.013-.01-.014-.009-.014-.008-.015-.008-.015-.007-.015-.006-.015-.006-.016,0-.016,0-.016,0-.016,0-.016,0h-.023Z" transform="translate(-883.435 -91.049)" fill="#ffbc56"/><path d="M912.948,94.057h-.021l-.017,0-.016,0-.016,0-.014,0h0l0,0-.021.007-.015.006-.015.007-.014.008-.014.008-.014.009-.013.01-.013.01-.012.011-.012.012-.011.012-.01.013-.01.013-.009.013-.008.014-.008.015-.007.015-.006.015-.005.015,0,.016,0,.016,0,.016c0,.005,0,.011,0,.016l0,.016q0,.008,0,.016v.006c0,.005,0,.011,0,.016v.005l0,.016c0,.005,0,.011,0,.016l0,.016,0,.015v0l0,0,.007.021.006.015.007.015.008.014.008.014.009.014.009.013.01.013.011.012.011.012.012.011.013.01.013.01.014.009.014.009.014.008.015.007.015.006.016.006.016,0,.016,0,.016,0,.016,0,.016,0h.044l.017,0,.016,0,.016,0,.015,0h0l0,0,.022-.007.015-.006.015-.007.015-.008.014-.008.014-.009.013-.01.013-.01.012-.011.012-.012.011-.012.01-.013.01-.013.009-.014.009-.014.008-.015.007-.015.006-.015.006-.015,0-.016,0-.016,0-.016c0-.005,0-.011,0-.016s0-.011,0-.017,0-.011,0-.016,0,0,0-.006,0-.011,0-.016,0,0,0,0,0-.011,0-.017,0-.011,0-.016l0-.016,0-.015v0l0,0-.007-.021-.006-.015-.007-.015-.008-.014-.008-.014-.009-.014-.01-.013-.01-.013-.011-.012-.012-.012-.012-.011-.013-.01-.013-.01-.014-.009-.014-.009-.015-.008-.015-.007-.015-.006-.015-.006-.016,0-.016,0-.016,0-.016,0-.016,0h-.023Z" transform="translate(-883.435 -91.049)" fill="#ffbc56"/><path d="M912.948,94.057h-.021l-.017,0-.016,0-.016,0-.014,0h0l0,0-.021.007-.015.006-.015.007-.014.008-.014.008-.014.009-.013.01-.013.01-.012.011-.012.012-.011.012-.01.013-.01.013-.009.013-.008.014-.008.015-.007.015-.006.015-.005.015,0,.016,0,.016,0,.016c0,.005,0,.011,0,.016l0,.016q0,.008,0,.016v.006c0,.005,0,.011,0,.016v.005l0,.016c0,.005,0,.011,0,.017l0,.016,0,.014v0l0,0,.007.021.006.015.007.015.008.014.008.014.009.014.009.013.01.013.011.012.011.012.012.011.013.01.013.01.014.009.014.009.014.008.015.007.015.006.016.006.016,0,.016,0,.016,0,.016,0,.016,0h.044l.017,0,.016,0,.016,0,.015,0h0l0,0,.022-.007.015-.006.015-.007.015-.008.014-.008.014-.009.013-.01.013-.01.012-.011.012-.012.011-.012.01-.013.01-.013.009-.013.009-.014.008-.015.007-.015.006-.015.006-.016,0-.015,0-.016,0-.016c0-.005,0-.011,0-.016s0-.011,0-.016,0-.011,0-.016,0,0,0-.006,0-.011,0-.017,0,0,0-.005,0-.011,0-.017,0-.011,0-.016l0-.016,0-.014v0l0,0-.007-.021-.006-.015-.007-.015-.008-.014-.008-.014-.009-.014-.01-.013-.01-.013-.011-.012-.012-.012-.012-.011-.013-.01-.013-.01-.014-.009-.014-.008-.015-.008-.015-.007-.015-.006-.015-.006-.016,0-.016,0-.016,0-.016,0-.016,0h-.023Z" transform="translate(-883.435 -91.049)" fill="#ffbc56"/><path d="M912.948,94.057h-.021l-.017,0-.016,0-.016,0-.014,0h0l0,0-.021.007-.015.006-.015.007-.014.008-.014.008-.014.009-.013.01-.013.01-.012.011-.012.012-.011.012-.01.013-.01.013-.009.013-.008.014-.008.015-.007.015-.006.015-.005.015,0,.016,0,.016,0,.016c0,.005,0,.011,0,.016l0,.016q0,.008,0,.016v.006c0,.005,0,.011,0,.016v.005l0,.016c0,.005,0,.011,0,.017l0,.016,0,.014v0l0,0,.007.021.006.015.007.015.008.014.008.014.009.014.009.013.01.013.011.012.011.012.012.011.013.01.013.01.014.009.014.009.014.008.015.007.015.006.016.006.016,0,.016,0,.016,0,.016,0,.016,0h.044l.017,0,.016,0,.016,0,.015,0h0l0,0,.022-.007.015-.006.015-.007.015-.008.014-.008.014-.009.013-.01.013-.01.012-.011.012-.012.011-.012.01-.013.01-.013.009-.013.009-.014.008-.015.007-.015.006-.015.006-.016,0-.015,0-.016,0-.016c0-.005,0-.011,0-.016s0-.011,0-.016,0-.011,0-.016,0,0,0-.006,0-.011,0-.017,0,0,0-.005,0-.011,0-.017,0-.011,0-.016l0-.016,0-.014v0l0,0-.007-.021-.006-.015-.007-.015-.008-.014-.008-.014-.009-.014-.01-.013-.01-.013-.011-.012-.012-.012-.012-.011-.013-.01-.013-.01-.014-.009-.014-.008-.015-.008-.015-.007-.015-.006-.015-.006-.016,0-.016,0-.016,0-.016,0-.016,0h-.023Z" transform="translate(-883.435 -91.049)" fill="#ffbc56"/><path d="M912.948,94.057h-.021l-.017,0-.016,0-.016,0-.014,0h0l0,0-.021.007-.015.006-.015.007-.014.008-.014.008-.014.009-.013.01-.013.01-.012.011-.012.012-.011.012-.01.013-.01.013-.009.013-.008.014-.008.015-.007.015-.006.015-.005.015,0,.016,0,.016,0,.016c0,.005,0,.011,0,.016l0,.016q0,.008,0,.016v.006c0,.005,0,.011,0,.016v.005l0,.016c0,.005,0,.011,0,.017l0,.016,0,.014v0l0,0,.007.021.006.015.007.015.008.014.008.014.009.014.009.013.01.013.011.012.011.012.012.011.013.01.013.01.014.009.014.009.014.008.015.007.015.006.016.006.016,0,.016,0,.016,0,.016,0,.016,0h.044l.017,0,.016,0,.016,0,.015,0h0l0,0,.022-.007.015-.006.015-.007.015-.008.014-.008.014-.009.013-.01.013-.01.012-.011.012-.012.011-.012.01-.013.01-.013.009-.013.009-.014.008-.015.007-.015.006-.015.006-.016,0-.015,0-.016,0-.016c0-.005,0-.011,0-.016s0-.011,0-.016,0-.011,0-.016,0,0,0-.006,0-.011,0-.017,0,0,0-.005,0-.011,0-.017,0-.011,0-.016l0-.016,0-.014v0l0,0-.007-.021-.006-.015-.007-.015-.008-.014-.008-.014-.009-.014-.01-.013-.01-.013-.011-.012-.012-.012-.012-.011-.013-.01-.013-.01-.014-.009-.014-.008-.015-.008-.015-.007-.015-.006-.015-.006-.016,0-.016,0-.016,0-.016,0-.016,0h-.023Z" transform="translate(-883.435 -91.049)" fill="#ffbc56"/><path d="M912.948,94.057h-.021l-.017,0-.016,0-.016,0-.014,0h0l0,0-.021.007-.015.006-.015.007-.014.008-.014.008-.014.009-.013.01-.013.01-.012.011-.012.012-.011.012-.01.013-.01.013-.009.013-.008.014-.008.015-.007.015-.006.015-.005.015,0,.016,0,.016,0,.016c0,.005,0,.011,0,.016l0,.016q0,.008,0,.016v.006c0,.005,0,.011,0,.016v.005l0,.016c0,.005,0,.011,0,.017l0,.016,0,.014v0l0,0,.007.021.006.015.007.015.008.014.008.014.009.014.009.013.01.013.011.012.011.012.012.011.013.01.013.01.014.009.014.009.014.008.015.007.015.006.016.006.016,0,.016,0,.016,0,.016,0,.016,0h.044l.017,0,.016,0,.016,0,.015,0h0l0,0,.022-.007.015-.006.015-.007.015-.008.014-.008.014-.009.013-.01.013-.01.012-.011.012-.012.011-.012.01-.013.01-.013.009-.013.009-.014.008-.015.007-.015.006-.015.006-.016,0-.015,0-.016,0-.016c0-.005,0-.011,0-.016s0-.011,0-.016,0-.011,0-.016,0,0,0-.006,0-.011,0-.017,0,0,0-.005,0-.011,0-.017,0-.011,0-.016l0-.016,0-.014v0l0,0-.007-.021-.006-.015-.007-.015-.008-.014-.008-.014-.009-.014-.01-.013-.01-.013-.011-.012-.012-.012-.012-.011-.013-.01-.013-.01-.014-.009-.014-.008-.015-.008-.015-.007-.015-.006-.015-.006-.016,0-.016,0-.016,0-.016,0-.016,0h-.023Z" transform="translate(-883.435 -91.049)" fill="#ffbc56"/><path d="M912.948,94.057h-.021l-.017,0-.016,0-.016,0-.014,0h0l0,0-.021.007-.015.006-.015.007-.014.008-.014.008-.014.009-.013.01-.013.01-.012.011-.012.012-.011.012-.01.013-.01.013-.009.013-.008.014-.008.015-.007.015-.006.015-.005.015,0,.016,0,.016,0,.016c0,.005,0,.011,0,.016l0,.016q0,.008,0,.016v.006c0,.005,0,.011,0,.016v.005l0,.016c0,.005,0,.011,0,.017l0,.016,0,.014v0l0,0,.007.021.006.015.007.015.008.014.008.014.009.014.009.013.01.013.011.012.011.012.012.011.013.01.013.01.014.009.014.009.014.008.015.007.015.006.016.006.016,0,.016,0,.016,0,.016,0,.016,0h.044l.017,0,.016,0,.016,0,.015,0h0l0,0,.022-.007.015-.006.015-.007.015-.008.014-.008.014-.009.013-.01.013-.01.012-.011.012-.012.011-.012.01-.013.01-.013.009-.013.009-.014.008-.015.007-.015.006-.015.006-.016,0-.015,0-.016,0-.016c0-.005,0-.011,0-.016s0-.011,0-.016,0-.011,0-.016,0,0,0-.006,0-.011,0-.017,0,0,0-.005,0-.011,0-.017,0-.011,0-.016l0-.016,0-.014v0l0,0-.007-.021-.006-.015-.007-.015-.008-.014-.008-.014-.009-.014-.01-.013-.01-.013-.011-.012-.012-.012-.012-.011-.013-.01-.013-.01-.014-.009-.014-.008-.015-.008-.015-.007-.015-.006-.015-.006-.016,0-.016,0-.016,0-.016,0-.016,0h-.023Z" transform="translate(-883.435 -91.049)" fill="#ffbc56"/><path d="M912.948,94.057h-.021l-.017,0-.016,0-.016,0-.014,0h0l0,0-.021.007-.015.006-.015.007-.014.008-.014.008-.014.009-.013.01-.013.01-.012.011-.012.012-.011.012-.01.013-.01.013-.009.013-.008.014-.008.015-.007.015-.006.015-.005.015,0,.016,0,.016,0,.016c0,.005,0,.011,0,.016l0,.016q0,.008,0,.016v.006c0,.005,0,.011,0,.016v.005l0,.016c0,.005,0,.011,0,.017l0,.016,0,.014v0l0,0,.007.021.006.015.007.015.008.014.008.014.009.014.009.013.01.013.011.012.011.012.012.011.013.01.013.01.014.009.014.009.014.008.015.007.015.006.016.006.016,0,.016,0,.016,0,.016,0,.016,0h.044l.017,0,.016,0,.016,0,.015,0h0l0,0,.022-.007.015-.006.015-.007.015-.008.014-.008.014-.009.013-.01.013-.01.012-.011.012-.012.011-.012.01-.013.01-.013.009-.013.009-.014.008-.015.007-.015.006-.015.006-.016,0-.015,0-.016,0-.016c0-.005,0-.011,0-.016s0-.011,0-.016,0-.011,0-.016,0,0,0-.006,0-.011,0-.017,0,0,0-.005,0-.011,0-.017,0-.011,0-.016l0-.016,0-.014v0l0,0-.007-.021-.006-.015-.007-.015-.008-.014-.008-.014-.009-.014-.01-.013-.01-.013-.011-.012-.012-.012-.012-.011-.013-.01-.013-.01-.014-.009-.014-.008-.015-.008-.015-.007-.015-.006-.015-.006-.016,0-.016,0-.016,0-.016,0-.016,0h-.023Z" transform="translate(-883.435 -91.049)" fill="#ffbc56"/><path d="M912.948,94.057h-.021l-.017,0-.016,0-.016,0-.014,0h0l0,0-.021.007-.015.006-.015.007-.014.008-.014.008-.014.009-.013.01-.013.01-.012.011-.012.012-.011.012-.01.013-.01.013-.009.013-.008.014-.008.015-.007.015-.006.015-.005.015,0,.016,0,.016,0,.016c0,.005,0,.011,0,.016l0,.016q0,.008,0,.016v.006c0,.005,0,.011,0,.016v.005l0,.016c0,.005,0,.011,0,.017l0,.016,0,.014v0l0,0,.007.021.006.015.007.015.008.014.008.014.009.014.009.013.01.013.011.012.011.012.012.011.013.01.013.01.014.009.014.009.014.008.015.007.015.006.016.006.016,0,.016,0,.016,0,.016,0,.016,0h.044l.017,0,.016,0,.016,0,.015,0h0l0,0,.022-.007.015-.006.015-.007.015-.008.014-.008.014-.009.013-.01.013-.01.012-.011.012-.012.011-.012.01-.013.01-.013.009-.013.009-.014.008-.015.007-.015.006-.015.006-.016,0-.015,0-.016,0-.016c0-.005,0-.011,0-.016s0-.011,0-.016,0-.011,0-.016,0,0,0-.006,0-.011,0-.017,0,0,0-.005,0-.011,0-.017,0-.011,0-.016l0-.016,0-.014v0l0,0-.007-.021-.006-.015-.007-.015-.008-.014-.008-.014-.009-.014-.01-.013-.01-.013-.011-.012-.012-.012-.012-.011-.013-.01-.013-.01-.014-.009-.014-.008-.015-.008-.015-.007-.015-.006-.015-.006-.016,0-.016,0-.016,0-.016,0-.016,0h-.023Z" transform="translate(-883.435 -91.049)" fill="#ffbc56"/><path d="M912.948,94.057h-.021l-.017,0-.016,0-.016,0-.014,0h0l0,0-.021.007-.015.006-.015.007-.014.008-.014.008-.014.009-.013.01-.013.01-.012.011-.012.012-.011.012-.01.013-.01.013-.009.013-.008.014-.008.015-.007.015-.006.015-.005.015,0,.016,0,.016,0,.016c0,.005,0,.011,0,.016l0,.016q0,.008,0,.016v.006c0,.005,0,.011,0,.016v.005l0,.016c0,.005,0,.011,0,.017l0,.016,0,.014v0l0,0,.007.021.006.015.007.015.008.014.008.014.009.014.009.013.01.013.011.012.011.012.012.011.013.01.013.01.014.009.014.009.014.008.015.007.015.006.016.006.016,0,.016,0,.016,0,.016,0,.016,0h.044l.017,0,.016,0,.016,0,.015,0h0l0,0,.022-.007.015-.006.015-.007.015-.008.014-.008.014-.009.013-.01.013-.01.012-.011.012-.012.011-.012.01-.013.01-.013.009-.013.009-.014.008-.015.007-.015.006-.015.006-.016,0-.015,0-.016,0-.016c0-.005,0-.011,0-.016s0-.011,0-.016,0-.011,0-.016,0,0,0-.006,0-.011,0-.017,0,0,0-.005,0-.011,0-.017,0-.011,0-.016l0-.016,0-.014v0l0,0-.007-.021-.006-.015-.007-.015-.008-.014-.008-.014-.009-.014-.01-.013-.01-.013-.011-.012-.012-.012-.012-.011-.013-.01-.013-.01-.014-.009-.014-.008-.015-.008-.015-.007-.015-.006-.015-.006-.016,0-.016,0-.016,0-.016,0-.016,0h-.023Z" transform="translate(-883.435 -91.049)" fill="#ffbc56"/><path d="M912.948,94.057h-.021l-.017,0-.016,0-.016,0-.014,0h0l0,0-.021.007-.015.006-.015.007-.014.008-.014.008-.014.009-.013.01-.013.01-.012.011-.012.012-.011.012-.01.013-.01.013-.009.013-.008.014-.008.015-.007.015-.006.015-.005.015,0,.016,0,.016,0,.016c0,.005,0,.011,0,.016l0,.016q0,.008,0,.016v.006c0,.005,0,.011,0,.016v.005l0,.016c0,.005,0,.011,0,.017l0,.016,0,.014v0l0,0,.007.021.006.015.007.015.008.014.008.014.009.014.009.013.01.013.011.012.011.012.012.011.013.01.013.01.014.009.014.009.014.008.015.007.015.006.016.006.016,0,.016,0,.016,0,.016,0,.016,0h.044l.017,0,.016,0,.016,0,.015,0h0l0,0,.022-.007.015-.006.015-.007.015-.008.014-.008.014-.009.013-.01.013-.01.012-.011.012-.012.011-.012.01-.013.01-.013.009-.013.009-.014.008-.015.007-.015.006-.015.006-.016,0-.015,0-.016,0-.016c0-.005,0-.011,0-.016s0-.011,0-.016,0-.011,0-.016,0,0,0-.006,0-.011,0-.017,0,0,0-.005,0-.011,0-.017,0-.011,0-.016l0-.016,0-.014v0l0,0-.007-.021-.006-.015-.007-.015-.008-.014-.008-.014-.009-.014-.01-.013-.01-.013-.011-.012-.012-.012-.012-.011-.013-.01-.013-.01-.014-.009-.014-.008-.015-.008-.015-.007-.015-.006-.015-.006-.016,0-.016,0-.016,0-.016,0-.016,0h-.023Z" transform="translate(-883.435 -91.049)" fill="#ffbc56"/><path d="M415.524,304.958a2.251,2.251,0,0,0-2.256,2.257v1.864h4.513v-1.864a2.252,2.252,0,0,0-2.257-2.257" transform="translate(-400.052 -295.206)" fill="#1a1a1a"/><path d="M480.8,333.5a.728.728,0,1,1-.213-.515.728.728,0,0,1,.213.515" transform="translate(-464.013 -322.129)" fill="#fff"/><path d="M706.673,304.958a2.252,2.252,0,0,0-2.257,2.257v1.864h4.513v-1.864a2.252,2.252,0,0,0-2.257-2.257" transform="translate(-681.89 -295.206)" fill="#1a1a1a"/><path d="M771.955,333.5a.729.729,0,1,1-.213-.515.728.728,0,0,1,.213.515" transform="translate(-745.858 -322.129)" fill="#fff"/><path d="M438.837,516.162a1.055,1.055,0,0,0-1.058,1.057v1.193a6.128,6.128,0,0,0,12.256,0v-1.193a1.055,1.055,0,0,0-1.057-1.057Z" transform="translate(-423.779 -499.656)" fill="#af0035"/><path d="M489.65,646.9a6.113,6.113,0,0,0-4.617,2.1,6.128,6.128,0,0,0,9.234,0,6.113,6.113,0,0,0-4.617-2.1" transform="translate(-469.522 -626.209)" fill="#ff5574"/><path d="M438.836,516.158a1.055,1.055,0,0,0-1.057,1.058v1.065a14.115,14.115,0,0,0,12.256,0v-1.069a1.055,1.055,0,0,0-1.058-1.058Z" transform="translate(-423.779 -499.652)" fill="#fff"/><path d="M438.836,516.158a1.055,1.055,0,0,0-1.057,1.058v1.065a14.289,14.289,0,0,0,2.141.8c-.418-.282-.5-.673-.5-1.286v-1.64Z" transform="translate(-423.779 -499.652)" fill="#b9dae9"/><path d="M690.3,516.158v1.64c0,.827-.212,1.543-.923,1.734a14.272,14.272,0,0,0,4.21-1.247v-1.069a1.055,1.055,0,0,0-1.057-1.058Z" transform="translate(-667.335 -499.652)" fill="#b9dae9"/><path d="M755.148,516.158a1.055,1.055,0,0,1,1.057,1.058v1.065a14.289,14.289,0,0,1-2.141.8c.418-.282.5-.673.5-1.286v-1.64Z" transform="translate(-729.95 -499.652)" fill="#8bb0cc"/><path d="M432.209,509.31a1.279,1.279,0,0,0-1.277,1.276v1.193a6.347,6.347,0,0,0,12.694,0v-1.193a1.278,1.278,0,0,0-1.276-1.276Zm0,.438h10.141a.832.832,0,0,1,.838.838v1.193a5.909,5.909,0,0,1-11.818,0v-1.193a.832.832,0,0,1,.839-.838" transform="translate(-417.151 -493.023)" fill="#1a1a1a"/><path d="M432.3,578.1l-.1.2a14.386,14.386,0,0,0,12.612,0l-.1-.2a14.166,14.166,0,0,1-12.42,0" transform="translate(-418.384 -559.612)" fill="#1a1a1a"/><path d="M546.509,676.809a.632.632,0,0,1-.3.507,1.34,1.34,0,0,1-1.441,0,.58.58,0,0,1,0-1.015,1.34,1.34,0,0,1,1.441,0,.633.633,0,0,1,.3.507" transform="translate(-527.059 -654.47)" fill="#ff95a2"/></g></g><path d="M8.234.276a6.142,6.142,0,0,0,3.243-.862,6.251,6.251,0,0,0,2.254-2.346,6.7,6.7,0,0,0,.828-3.324,6.7,6.7,0,0,0-.828-3.323,6.251,6.251,0,0,0-2.254-2.346,6.1,6.1,0,0,0-3.22-.863,4.935,4.935,0,0,0-3.841,1.541v-6.164H1.4V0H4.232V-1.4A4.56,4.56,0,0,0,5.969-.161,5.82,5.82,0,0,0,8.234.276Zm-.345-2.76a3.36,3.36,0,0,1-1.782-.483A3.363,3.363,0,0,1,4.865-4.3a4.131,4.131,0,0,1-.449-1.955,4.131,4.131,0,0,1,.449-1.955A3.363,3.363,0,0,1,6.107-9.545a3.36,3.36,0,0,1,1.782-.483,3.385,3.385,0,0,1,1.829.495,3.532,3.532,0,0,1,1.253,1.345,4,4,0,0,1,.46,1.932,4.065,4.065,0,0,1-.46,1.944A3.426,3.426,0,0,1,9.718-2.967,3.446,3.446,0,0,1,7.889-2.484ZM22.057.276a6.647,6.647,0,0,0,3.312-.839,6.437,6.437,0,0,0,2.392-2.323,6.383,6.383,0,0,0,.9-3.37,6.386,6.386,0,0,0-.886-3.358,6.466,6.466,0,0,0-2.38-2.323,6.622,6.622,0,0,0-3.335-.851,6.667,6.667,0,0,0-3.358.851,6.466,6.466,0,0,0-2.381,2.323,6.386,6.386,0,0,0-.885,3.358A6.386,6.386,0,0,0,16.319-2.9,6.44,6.44,0,0,0,18.711-.575,6.685,6.685,0,0,0,22.057.276Zm0-2.76a3.4,3.4,0,0,1-1.806-.483A3.345,3.345,0,0,1,19.01-4.312a4.149,4.149,0,0,1-.448-1.944,4.081,4.081,0,0,1,.448-1.932,3.446,3.446,0,0,1,1.242-1.345,3.343,3.343,0,0,1,1.806-.495,3.228,3.228,0,0,1,1.783.495,3.507,3.507,0,0,1,1.219,1.345,4.081,4.081,0,0,1,.448,1.932,4.149,4.149,0,0,1-.448,1.944A3.4,3.4,0,0,1,23.84-2.967,3.285,3.285,0,0,1,22.057-2.484ZM36.133.276a6.647,6.647,0,0,0,3.312-.839,6.437,6.437,0,0,0,2.392-2.323,6.383,6.383,0,0,0,.9-3.37,6.386,6.386,0,0,0-.886-3.358,6.466,6.466,0,0,0-2.381-2.323,6.622,6.622,0,0,0-3.335-.851,6.667,6.667,0,0,0-3.358.851,6.466,6.466,0,0,0-2.381,2.323,6.386,6.386,0,0,0-.885,3.358A6.386,6.386,0,0,0,30.394-2.9,6.44,6.44,0,0,0,32.786-.575,6.685,6.685,0,0,0,36.133.276Zm0-2.76a3.4,3.4,0,0,1-1.806-.483,3.345,3.345,0,0,1-1.242-1.346,4.149,4.149,0,0,1-.448-1.944,4.081,4.081,0,0,1,.448-1.932,3.446,3.446,0,0,1,1.242-1.345,3.343,3.343,0,0,1,1.806-.495,3.228,3.228,0,0,1,1.783.495,3.507,3.507,0,0,1,1.219,1.345,4.081,4.081,0,0,1,.449,1.932,4.149,4.149,0,0,1-.449,1.944,3.4,3.4,0,0,1-1.219,1.346A3.285,3.285,0,0,1,36.133-2.484ZM44.091,0H47.1V-3.818l1.61-1.748L52.233,0h3.45L50.968-7.475l4.623-5.037H51.842L47.1-7.544v-9.867H44.091ZM61.2.276a5.934,5.934,0,0,0,2.484-.483,3.964,3.964,0,0,0,1.656-1.346,3.406,3.406,0,0,0,.6-1.99A3.3,3.3,0,0,0,65.113-5.8a4.809,4.809,0,0,0-2.392-1.38l-2-.6a3.388,3.388,0,0,1-1.058-.483.965.965,0,0,1-.414-.828,1.09,1.09,0,0,1,.437-.9,1.881,1.881,0,0,1,1.2-.345,3.055,3.055,0,0,1,1.714.506,2.629,2.629,0,0,1,1.069,1.357l2.3-1.081a4.734,4.734,0,0,0-1.932-2.38,5.705,5.705,0,0,0-3.128-.863,5.677,5.677,0,0,0-2.4.483,3.894,3.894,0,0,0-1.633,1.345,3.492,3.492,0,0,0-.586,2.013A3.3,3.3,0,0,0,57.1-6.716a4.882,4.882,0,0,0,2.4,1.4l2.047.575a3.074,3.074,0,0,1,1.024.471A.986.986,0,0,1,63-3.427a1.14,1.14,0,0,1-.494.977,2.173,2.173,0,0,1-1.3.357,3.242,3.242,0,0,1-1.909-.6,4.17,4.17,0,0,1-1.357-1.656L55.683-3.266A4.91,4.91,0,0,0,57.719-.69,6.242,6.242,0,0,0,61.2.276ZM67.344,0h3.013V-17.411H67.344ZM78.338.276A6.647,6.647,0,0,0,81.65-.563a6.437,6.437,0,0,0,2.392-2.323,6.383,6.383,0,0,0,.9-3.37,6.386,6.386,0,0,0-.886-3.358,6.466,6.466,0,0,0-2.38-2.323,6.622,6.622,0,0,0-3.335-.851,6.667,6.667,0,0,0-3.358.851A6.466,6.466,0,0,0,72.6-9.614a6.386,6.386,0,0,0-.885,3.358A6.386,6.386,0,0,0,72.6-2.9,6.44,6.44,0,0,0,74.992-.575,6.685,6.685,0,0,0,78.338.276Zm0-2.76a3.4,3.4,0,0,1-1.805-.483,3.345,3.345,0,0,1-1.242-1.346,4.149,4.149,0,0,1-.449-1.944,4.08,4.08,0,0,1,.449-1.932,3.446,3.446,0,0,1,1.242-1.345,3.343,3.343,0,0,1,1.805-.495,3.228,3.228,0,0,1,1.783.495A3.507,3.507,0,0,1,81.34-8.188a4.08,4.08,0,0,1,.449,1.932,4.149,4.149,0,0,1-.449,1.944A3.4,3.4,0,0,1,80.12-2.967,3.285,3.285,0,0,1,78.338-2.484ZM91.77.138A9.67,9.67,0,0,0,93.265.023v-2.6a5.189,5.189,0,0,1-.805.069,2.2,2.2,0,0,1-1.61-.506,1.961,1.961,0,0,1-.506-1.449V-9.821h2.875v-2.691H90.344v-2.852H87.331v.966a1.849,1.849,0,0,1-.506,1.4,1.983,1.983,0,0,1-1.426.483h-.23v2.691h2.162V-4.3a4.44,4.44,0,0,0,1.161,3.266A4.407,4.407,0,0,0,91.77.138Zm7.636.138a5.934,5.934,0,0,0,2.484-.483,3.964,3.964,0,0,0,1.656-1.346,3.406,3.406,0,0,0,.6-1.99,3.3,3.3,0,0,0-.828-2.254,4.809,4.809,0,0,0-2.392-1.38l-2-.6a3.388,3.388,0,0,1-1.058-.483.965.965,0,0,1-.414-.828,1.09,1.09,0,0,1,.437-.9,1.881,1.881,0,0,1,1.2-.345,3.055,3.055,0,0,1,1.714.506,2.629,2.629,0,0,1,1.069,1.357l2.3-1.081a4.734,4.734,0,0,0-1.932-2.38,5.705,5.705,0,0,0-3.128-.863,5.677,5.677,0,0,0-2.4.483A3.894,3.894,0,0,0,95.07-10.96a3.492,3.492,0,0,0-.587,2.013A3.3,3.3,0,0,0,95.3-6.716a4.882,4.882,0,0,0,2.4,1.4l2.047.575a3.074,3.074,0,0,1,1.023.471.986.986,0,0,1,.425.839,1.14,1.14,0,0,1-.494.977,2.173,2.173,0,0,1-1.3.357,3.242,3.242,0,0,1-1.909-.6A4.17,4.17,0,0,1,96.14-4.347L93.886-3.266A4.91,4.91,0,0,0,95.921-.69,6.242,6.242,0,0,0,99.406.276Z" transform="translate(232 400)" fill="#362f31"/></g></svg>